<?xml version="1.0" encoding="utf-8"?>
<!-- Generator: Adobe Illustrator 23.0.1, SVG Export Plug-In . SVG Version: 6.00 Build 0)  -->
<svg version="1.1" id="Layer_1" xmlns="http://www.w3.org/2000/svg" xmlns:xlink="http://www.w3.org/1999/xlink" x="0px" y="0px"
	 viewBox="0 0 636.5 146.1" style="enable-background:new 0 0 636.5 146.1;" xml:space="preserve">
<style type="text/css">
	.st0{fill:#666666;}
</style>
<path class="st0" d="M0,146.1h146.1V0H0V146.1z M93.7,11.2c25.8,8.5,44.5,32.9,44.6,61.9c0.1,28.5-18.2,52.9-44.6,61.9
	C93.7,135,93.7,11.2,93.7,11.2z M73,7.9c4.7,0,9.6,0.6,13.8,1.4c0,33.1-32,60.3-65.1,60.3H7.9C10.2,35.7,38.3,7.9,73,7.9z
	 M21.8,76.5c33,0,65,27.2,65,60.3c-4.1,0.8-9.4,1.5-13.8,1.5c-34.8,0-63.8-28-65.1-61.8H21.8z"/>
<g>
	<path class="st0" d="M195,85.9v-9.2h30.4V65H195V47.9h32.3V36.1h-44.8v25.2v24.1c0,12.4,5.3,21,17.7,22.7c0.3,0.1,0.5,0.1,0.7,0.1
		h0.2c1.3,0.1,2.6,0.2,3.9,0.2h23V96.7h-22.9C201.4,96.7,195,94.8,195,85.9z"/>
	<polygon class="st0" points="237.1,70.3 237.1,108.4 249.5,108.4 249.5,70 249.5,36.1 237.1,36.1 	"/>
	<path class="st0" d="M285.2,54.5c-15.7,0-27.5,10.8-27.5,27.7v0.4c0,16.5,11.4,27.1,27.8,27.1c7.9,0,15.3-2.2,22.1-9.4l-7.5-7.3
		c-4,4-7.8,6-14.2,6c-9.3,0-15.4-5.4-15.8-13.8H311c0.2-2.1,0.2-4.4,0.2-4.4C311.2,66.3,300.9,54.5,285.2,54.5z M270.4,76.6
		c0.5-6.4,7-11.5,14.8-11.5c7.3,0,13.2,5.2,13.2,11.5H270.4z"/>
	<path class="st0" d="M346.2,65.6c5.6,0,9.8,2.1,13.3,5.7l7.7-8c-6-6.5-13.2-9.1-21.1-9.1c-15.8,0-28.6,11.8-28.6,27.8
		s12.7,27.8,28.6,27.8c7.8,0,15-2.6,21.1-9.1l-7.7-8c-3.5,3.6-7.7,5.7-13.3,5.7c-9.2,0-16.2-7-16.2-16.5S337,65.6,346.2,65.6z"/>
	<path class="st0" d="M387.4,85.9L387.4,85.9V67.4h11.3V56.1h-11.3v-20H375V62v24.6l0,0c0.4,11.7,5.7,19.8,17.7,21.4
		c0.3,0.1,0.5,0.1,0.7,0.1h0.2c1.3,0.1,2.6,0.2,3.9,0.2h1.3V96.6h-1.3C393.7,96.7,387.4,94.8,387.4,85.9z"/>
	<path class="st0" d="M421.5,63.9v-7.8h-12.3v25.6v26.7h12.3V80.9c0-8.6,5.5-14,14.1-14c2,0,3.7,0.2,5.2,0.5v-12
		c-0.5-0.1-2.4-0.3-3.7-0.3C429.6,55.1,424,58.5,421.5,63.9z"/>
	<path class="st0" d="M471.3,54.6c-15.9,0-28.5,12-28.5,27.7s12.7,27.7,28.5,27.7s28.5-12,28.5-27.7S487.1,54.6,471.3,54.6z
		 M471.3,98.7c-9.2,0-16.2-7.2-16.2-16.4s6.9-16.4,16.2-16.4c9.1,0,16.2,7.2,16.2,16.4S480.4,98.7,471.3,98.7z"/>
	<polygon class="st0" points="507.5,69.1 507.5,108.4 519.9,108.4 519.9,69.6 519.9,36.1 507.5,36.1 	"/>
	<path class="st0" d="M564.8,86.5c0,8.3-4.9,11.8-11.4,11.8S542,94.8,542,86.6V56.2h-12.6v15.1v16.4c0,14.9,10.9,22.1,23.9,22.1
		c13.1,0,24.1-7.3,24.1-22.4V71.3V56.2h-12.5L564.8,86.5L564.8,86.5z"/>
	<polygon class="st0" points="624.5,91.7 616.6,80.7 626.4,67.5 634.7,56.2 621.1,56.2 609.8,71.8 598.4,56.2 584.9,56.2 
		592.6,66.7 603,80.8 592.1,95.9 583.1,108.4 596.5,108.4 609.8,90 623.1,108.4 636.5,108.4 	"/>
</g>
</svg>
