<?xml version="1.0" encoding="utf-8"?>
<!-- Generator: Adobe Illustrator 23.0.1, SVG Export Plug-In . SVG Version: 6.00 Build 0)  -->
<svg version="1.1" id="Layer_1" xmlns="http://www.w3.org/2000/svg" xmlns:xlink="http://www.w3.org/1999/xlink" x="0px" y="0px"
	 viewBox="0 0 377.3 115.8" style="enable-background:new 0 0 377.3 115.8;" xml:space="preserve">
<style type="text/css">
	.st0{fill:#666666;}
</style>
<g>
	<path class="st0" d="M34.4,39.3c4.6,0,9,0.3,13.5,1c5.5,0.8,10.6,1.7,14.4,3.6c1.2,0.7,2.3,1.6,3.1,2.6L49,48.8
		c-0.5-0.9-1.4-1.5-2.3-1.5c-1.6,0-2.9,1.6-2.9,3.5c0,2,1.3,3.5,2.9,3.5c1.1,0,2.1-0.8,2.6-2L67.1,50c0.2,0.7,0.3,1.4,0.3,2.1
		c0,2.4-0.9,4.5-2.3,6.2l6.8,1c1.2-2.1,1.8-4.6,1.8-7.2c0-6.9-2.7-10.6-8-14.6c-8.3-6.3-14.2-12.3-19.3-20c-1,3.7-2.6,7.6-4.8,11.6
		C39.4,33,37,36.5,34.4,39.3z"/>
	<polygon class="st0" points="86.2,59.6 95.4,59.6 95.4,85 100.8,85 100.8,59.6 110,59.6 110,54.9 86.2,54.9 	"/>
	<path class="st0" d="M96.1,104.3c-1.2,0-2.2,0.9-2.2,2.2c0,1.3,1.1,2.2,2.2,2.2c1.3,0,2.2-1,2.2-2.2
		C98.3,105.2,97.3,104.3,96.1,104.3z M96.1,108.5c-1.1,0-2-0.9-2-2s0.9-2,2-2c1.2,0,2,0.9,2,2S97.3,108.5,96.1,108.5z"/>
	<polygon class="st0" points="22,81.9 46.7,85.4 71.4,81.9 71.4,62.8 46.7,66.3 22,62.8 	"/>
	<path class="st0" d="M96.4,106.5c0.4-0.1,0.7-0.3,0.7-0.7c0-0.3-0.2-0.5-0.4-0.6c-0.2-0.1-0.3-0.1-0.6-0.1h-0.8v2.7h0.3v-1.3
		c0.6,0,0.9,0,1,0.5c0,0.1,0.1,0.5,0.1,0.6s0,0.1,0.1,0.2h0.4c-0.1-0.2-0.1-0.4-0.2-0.8C96.9,106.8,96.8,106.6,96.4,106.5z
		 M95.6,106.3v-0.9H96c0.3,0,0.4,0,0.5,0c0.2,0.1,0.2,0.2,0.2,0.4c0,0.5-0.5,0.5-0.7,0.5H95.6z"/>
	<polygon class="st0" points="46.7,88.5 13.8,83.9 0,109.3 46.7,115.8 93.4,109.3 79.6,83.9 	"/>
	<path class="st0" d="M17.9,44.7c1.1,0.6,2.5,0.7,4.1,0.2c5.4-1.6,12-8.4,16.9-17.4c6.5-12,8-24.3,3.1-27C41.5,0.2,40.9,0,40.2,0
		h-0.4c-0.6,0-1.2,0.1-1.8,0.3c-5.4,1.6-12,8.4-17,17.5c-4.9,9-7.1,18.3-5.5,23.6C16,43,16.8,44.1,17.9,44.7z"/>
	<path class="st0" d="M62.7,60.7v-3.4c0-1.1-7.2-2.1-16.1-2.1s-16,0.9-16,2.1v3.4c0,1.1,7.2,2,16,2C55.5,62.7,62.7,61.8,62.7,60.7z"
		/>
	<path class="st0" d="M193.3,72.4h6.3V80c-1.7,0.7-3.7,1.1-6,1.1c-1.7,0-3.2-0.3-4.5-0.8c-1.3-0.6-2.4-1.3-3.4-2.3
		c-0.9-1-1.6-2.2-2.1-3.5s-0.7-2.8-0.7-4.4s0.2-3,0.7-4.3s1.2-2.5,2.1-3.5c0.9-1,2-1.8,3.3-2.3c1.3-0.6,2.7-0.8,4.3-0.8
		s3.1,0.3,4.5,0.9c1.4,0.6,2.4,1.3,3.2,2.2l3.7-4c-1.2-1.1-2.8-2-4.8-2.7s-4.2-1-6.6-1c-2.3,0-4.5,0.4-6.5,1.1
		c-2,0.7-3.7,1.8-5.2,3.1c-1.5,1.4-2.6,3-3.4,4.9c-0.8,1.9-1.3,4.1-1.3,6.5c0,2.3,0.4,4.5,1.2,6.4s1.9,3.6,3.4,5
		c1.4,1.4,3.2,2.5,5.2,3.3s4.2,1.2,6.7,1.2c2.4,0,4.5-0.2,6.3-0.6s3.5-1,5-1.7V68h-11.5v4.4H193.3z"/>
	<polygon class="st0" points="353.5,55.1 345.8,67.7 338.3,55.1 331.7,55.1 343,72.1 343,85.1 348.4,85.1 348.4,72.1 359.7,55.1 	
		"/>
	<path class="st0" d="M361.3,68.5c0.7-0.3,1.4-0.5,2.2-0.5c0.9,0,1.8,0.2,2.6,0.7c0.8,0.4,1.4,1,1.9,1.6l3.3-2.9
		c-0.8-1-1.9-1.8-3.3-2.3s-2.8-0.8-4.3-0.8c-1,0-2,0.1-3,0.4s-1.8,0.6-2.6,1.2c-0.8,0.5-1.4,1.2-1.8,2c-0.5,0.8-0.7,1.8-0.7,2.9
		c0,1,0.2,1.8,0.5,2.4c0.3,0.7,0.8,1.2,1.4,1.6s1.2,0.8,1.9,1.1c0.7,0.3,1.5,0.5,2.2,0.7c1.6,0.4,2.7,0.7,3.5,1.1s1.2,1,1.2,1.8
		c0,0.5-0.1,0.8-0.3,1.1c-0.2,0.3-0.5,0.6-0.8,0.7c-0.3,0.2-0.7,0.3-1.1,0.4s-0.8,0.1-1.1,0.1c-1.1,0-2.1-0.2-3-0.7
		s-1.6-1.1-2.2-1.8l-3.4,3.1c1,1.1,2.2,1.9,3.7,2.5s3,0.9,4.6,0.9c1.1,0,2.2-0.1,3.2-0.4c1-0.2,1.9-0.6,2.7-1.2
		c0.8-0.5,1.4-1.2,1.9-2.1s0.7-1.9,0.7-3.2c0-1-0.2-1.8-0.6-2.5s-0.9-1.3-1.6-1.7c-0.6-0.5-1.3-0.8-2.1-1.1
		c-0.8-0.3-1.5-0.5-2.3-0.7c-1.4-0.3-2.5-0.7-3.3-1c-0.7-0.3-1.1-0.9-1.1-1.7C360.3,69.4,360.6,68.8,361.3,68.5z"/>
	<path class="st0" d="M375.5,58.2c0.2-0.1,0.3-0.4,0.3-0.7s-0.1-0.6-0.3-0.8c-0.2-0.2-0.5-0.2-0.9-0.2h-1.4V60h0.5v-1.5h0.6l1,1.5
		h0.6l-1-1.5C375.1,58.5,375.3,58.4,375.5,58.2z M374.3,58.1h-0.6V57h0.7c0.1,0,0.2,0,0.3,0c0.1,0,0.2,0,0.2,0.1
		c0.1,0,0.1,0.1,0.2,0.2c0,0.1,0.1,0.2,0.1,0.3s0,0.2-0.1,0.3s-0.1,0.1-0.2,0.2c-0.1,0-0.2,0.1-0.3,0.1
		C374.5,58.1,374.4,58.1,374.3,58.1z"/>
	<path class="st0" d="M377.1,57.1c-0.2-0.4-0.4-0.7-0.6-0.9c-0.3-0.3-0.6-0.5-1-0.6s-0.8-0.2-1.2-0.2c-0.4,0-0.8,0.1-1.2,0.2
		c-0.4,0.2-0.7,0.4-1,0.6c-0.3,0.3-0.5,0.6-0.7,0.9c-0.2,0.4-0.2,0.8-0.2,1.2s0.1,0.8,0.2,1.2c0.2,0.4,0.4,0.7,0.7,1
		c0.3,0.3,0.6,0.5,1,0.6s0.8,0.2,1.2,0.2c0.4,0,0.8-0.1,1.2-0.2c0.4-0.1,0.7-0.4,1-0.6c0.3-0.3,0.5-0.6,0.6-1
		c0.2-0.4,0.2-0.8,0.2-1.2C377.3,57.8,377.2,57.4,377.1,57.1z M376.6,59.3c-0.1,0.3-0.3,0.6-0.5,0.8s-0.5,0.4-0.8,0.5
		s-0.6,0.2-1,0.2s-0.7-0.1-1-0.2c-0.3-0.1-0.6-0.3-0.8-0.5c-0.2-0.2-0.4-0.5-0.5-0.8s-0.2-0.7-0.2-1c0-0.4,0.1-0.7,0.2-1
		s0.3-0.6,0.5-0.8s0.5-0.4,0.8-0.5s0.6-0.2,1-0.2c0.3,0,0.7,0.1,1,0.2c0.3,0.1,0.6,0.3,0.8,0.5c0.2,0.2,0.4,0.5,0.5,0.8
		s0.2,0.6,0.2,1C376.8,58.6,376.7,59,376.6,59.3z"/>
	<polygon class="st0" points="314.5,76.4 314.4,76.4 306.6,55.1 298.2,55.1 298.2,85.1 303.3,85.1 303.3,61 303.4,61 312.4,85.1 
		316.1,85.1 325.3,61 325.4,61 325.4,85.1 330.7,85.1 330.7,55.1 322.3,55.1 	"/>
	<polygon class="st0" points="278.9,76.4 278.7,76.4 270.9,55.1 262.6,55.1 262.6,85.1 267.7,85.1 267.7,61 267.8,61 276.8,85.1 
		280.5,85.1 289.6,61 289.7,61 289.7,85.1 295,85.1 295,55.1 286.6,55.1 	"/>
	<polygon class="st0" points="130.9,67 116.8,67 116.8,54.9 111.5,54.9 111.5,85 116.8,85 116.8,71.6 130.9,71.6 130.9,85 136.2,85 
		136.2,54.9 130.9,54.9 	"/>
	<path class="st0" d="M227.7,69c1.2-1.4,1.8-3.1,1.8-5.3c0-1.6-0.3-2.9-0.9-4c-0.6-1.1-1.4-2-2.5-2.7c-1-0.7-2.2-1.2-3.5-1.5
		s-2.7-0.4-4.1-0.4H208v30h5.3V72.4h3.9l7,12.7h6.5l-8-13.3C224.8,71.3,226.5,70.4,227.7,69z M220,67.8c-0.8,0.1-1.5,0.2-2.3,0.2
		h-4.4v-8.4h4.8c0.7,0,1.4,0.1,2.1,0.2c0.7,0.1,1.4,0.3,1.9,0.6c0.6,0.3,1,0.7,1.4,1.3c0.4,0.5,0.6,1.2,0.6,2c0,0.9-0.2,1.6-0.6,2.2
		c-0.4,0.6-0.9,1-1.5,1.3C221.5,67.5,220.8,67.7,220,67.8z"/>
	<polygon class="st0" points="144.8,71.7 158.6,71.7 158.6,67.2 144.8,67.2 144.8,59.6 159.3,59.6 159.3,54.9 139.4,54.9 139.4,85 
		160.1,85 160.1,80.2 144.8,80.2 	"/>
	<path class="st0" d="M243.8,55.1l-13.1,30h6l2.7-6.9h13l2.8,6.9h6.1l-12.9-30H243.8z M241.2,73.6l4.7-12.2l4.6,12.2H241.2z"/>
</g>
</svg>
