<?xml version="1.0" encoding="utf-8"?>
<!-- Generator: Adobe Illustrator 23.0.1, SVG Export Plug-In . SVG Version: 6.00 Build 0)  -->
<svg version="1.1" id="Layer_1" xmlns="http://www.w3.org/2000/svg" xmlns:xlink="http://www.w3.org/1999/xlink" x="0px" y="0px"
	 viewBox="0 0 112.1 48.7" style="enable-background:new 0 0 112.1 48.7;" xml:space="preserve">
<style type="text/css">
	.st0{fill-rule:evenodd;clip-rule:evenodd;fill:#666666;}
</style>
<g>
	<path class="st0" d="M30.5,4.2c2.3,0,8.6,0.3,4.5,12.2c-4.3,12.5-13.7,9.9-13.7,9.9l7-22.2h2.2V4.2z M47.4,17.3
		C52.7,4.1,42.8,0.5,36.3,0.5H14.8c1.8,1.2,1.5,2.9,1.1,3.8L3.4,44.5C2.9,46,1,47.7,0,48h17.4c-1-0.2-2.3-1.5-1.8-3.4l4.6-14.5
		C20.1,30.1,41.1,32.9,47.4,17.3"/>
	<path class="st0" d="M54.4,41.8c-0.7,0.4-3.4,1.8-6,2c-2.4,0.2-6.3-0.7-6.3-5.4c0-4.1,4.4-7,6.8-8C50,34.3,52.1,38.8,54.4,41.8
		 M61.3,16.3c-0.6,3.8-5.5,7.7-6.7,8.2c-0.2-2.1-0.1-5.5,1.7-8.3c1.2-1.8,2.8-2.6,4-2.2C61.3,14.4,61.4,15.3,61.3,16.3 M61.3,48H73
		c-3.7-1.2-9.3-4.7-11.5-7.3c1.8-2,4-4.4,4.4-9.4h-6.1c0,0,1.2,0.7,1.2,2.1c0,1.3-0.5,3.1-1.6,4.4c-1.8-2.6-3.7-5.6-4.3-10.1
		c2.4-1.2,5.7-2.5,8.4-4.8c2.5-2.2,3.1-4.3,3.1-5.7V17c0-1.4-0.6-2.8-1.6-3.8c-1.8-1.8-4.5-2.5-7.4-1.9c-2.3,0.4-4.3,1.7-5.3,2.6
		c-3.5,3.3-4,8.8-4,11.2c0,0.6,0,1.1,0,1.3c-0.2,0.1-0.6,0.2-0.6,0.2c-2.6,0.9-9.5,2.8-11.9,8.5c-0.3,0.7-0.8,2.3-0.8,4.1
		c0,1.6,0.3,3.3,1.3,4.9c1.7,2.7,4.7,4.4,9.4,4.3c5.1-0.1,10.2-3.6,11.1-4.2C57.8,45.2,60.1,47.4,61.3,48"/>
	<path class="st0" d="M96.9,4.3c7-1.7,12.7,3.8,13.2,4.1l2-6.3c-2.8-0.8-22.7-7.6-36.8,8.5c-8.7,9.9-10.8,30.2,0.2,35.7
		c11.8,5.8,24.8-0.9,25.7-1.4l5.4-17.1c0.6-2.1,1.9-3.4,4.2-4.3H92.1c2.7,1.1,2.5,3.2,2.3,4L89,44.7c-0.7,0.1-15.7,3.9-7.3-22.4
		C83.5,16.6,88.6,6.3,96.9,4.3"/>
</g>
</svg>
