<?xml version="1.0" encoding="utf-8"?>
<!-- Generator: Adobe Illustrator 23.0.1, SVG Export Plug-In . SVG Version: 6.00 Build 0)  -->
<svg version="1.1" id="Layer_1" xmlns="http://www.w3.org/2000/svg" xmlns:xlink="http://www.w3.org/1999/xlink" x="0px" y="0px"
	 viewBox="0 0 268 30.5" style="enable-background:new 0 0 268 30.5;" xml:space="preserve">
<style type="text/css">
	.st0{fill:#666666;}
</style>
<title>Stanford_Medicine</title>
<path class="st0" d="M135.6,13.7h3.2l2.9,8l1.1,3.1h0.1l1-3.1l2.9-8h3.3v16.3h-2.7v-7.5c0-1.5,0.2-3.7,0.4-5.2h-0.1l-1.3,3.7
	l-2.8,7.4H142l-2.8-7.4l-1.3-3.7h-0.1c0.1,1.5,0.4,3.7,0.4,5.2v7.5h-2.7L135.6,13.7L135.6,13.7z"/>
<path class="st0" d="M158.5,13.7h9.8v2.5h-6.9v4.2h5.9v2.4h-5.9v4.8h7.2v2.5h-10.1V13.7z"/>
<path class="st0" d="M176,13.7h4.4c5,0,7.9,2.7,7.9,8.1s-2.9,8.2-7.8,8.2H176V13.7z M180.2,27.7c3.3,0,5.2-1.9,5.2-5.9
	s-1.9-5.7-5.2-5.7h-1.3v11.6L180.2,27.7L180.2,27.7z"/>
<path class="st0" d="M196,13.7h2.9v16.3H196V13.7z"/>
<path class="st0" d="M214,13.4c1.8,0,3.4,0.8,4.6,2.1l-1.6,1.8c-0.8-0.9-1.9-1.3-3-1.4c-2.7,0-4.6,2.2-4.6,5.9s1.8,6,4.5,6
	c1.3,0,2.6-0.6,3.4-1.6L219,28c-1.3,1.5-3.1,2.4-5.1,2.4c-4.2,0-7.4-3-7.4-8.4S209.9,13.4,214,13.4z"/>
<path class="st0" d="M226,13.7h2.9v16.3H226V13.7z"/>
<path class="st0" d="M237.3,13.7h3l5.1,9.2l1.7,3.5h0.1c-0.1-1.7-0.4-3.7-0.4-5.6v-7.1h2.8v16.3h-3l-5.1-9.2l-1.7-3.5h-0.1
	c0.1,1.7,0.4,3.7,0.4,5.5V30h-2.8L237.3,13.7L237.3,13.7z"/>
<path class="st0" d="M257.9,13.7h9.8v2.5h-6.9v4.2h5.9v2.4h-5.9v4.8h7.2v2.5h-10.1V13.7z"/>
<line class="st0" x1="126.3" y1="30.4" x2="126.3" y2="0"/>
<rect x="126.1" class="st0" width="0.6" height="30.4"/>
<path class="st0" d="M31.5,30.4c-4.2,0-4.6-3.2-4.6-4.2c-0.1-1.9,1.2-3.7,3-4.2c2.8-1,3.4-1.1,5.3-1.8v-0.5c0.1-0.6,0-1.2-0.2-1.7
	c-0.5-1.2-1.6-1.9-2.9-1.8c-1.2,0-2.4,0.6-3,1.6L29,18.1l-0.8-0.5l0.1-0.2c0.4-1.2,1.9-3.3,5.3-3.3c2.2,0,3.6,0.6,4.5,2
	c0.6,1.3,0.8,2.7,0.7,4.1c0,1.4,0,2.9-0.1,4.1c0,0.8,0,1.5,0,2c0,1.1,0.2,2,1.1,2c0.2,0,0.3-0.1,0.4-0.3l0.2-0.2l0.5,0.6l-0.2,0.2
	c-0.7,1.1-1.8,1.7-3.1,1.7c-1.1,0.1-2.1-0.6-2.4-1.6C34.3,29.8,32.9,30.4,31.5,30.4z M35.2,22.1c-1.2,0.3-2.3,0.8-3.4,1.3
	c-0.9,0.5-1.4,1.4-1.4,2.5c-0.1,1.1,0.7,2.2,1.9,2.3c0.2,0,0.3,0,0.5,0c0.9,0,1.7-0.2,2.5-0.7L35.2,22.1L35.2,22.1z"/>
<path class="st0" d="M5.5,30.3c-1.8,0-3.5-0.2-5.2-0.7l-0.2-0.1v-1.1c0-1.5,0-2.1-0.1-2.6L0,25h0.9v0.3c0,0.7,0.3,1.4,0.7,1.9
	c1,0.8,2.3,1.3,3.6,1.2c3,0,4.4-1.1,4.4-3.6c0-2.1-1.3-2.9-3.1-4.1l-0.3-0.2l-1.9-1.2c-2.6-1.7-3.9-3.1-3.9-5.9
	c0-1.4,0.5-5.8,7.1-5.8c1.6,0,3.3,0.1,4.9,0.3l0.3,0.1v0.3c0,0,0,0.9,0,1.8c0,0.7,0,1.4,0,2v0.5h-0.8v-0.3c0-0.7-0.3-1.4-0.8-1.9
	c-1-0.7-2.3-1-3.5-0.9c-3.5,0-3.9,1.8-3.9,3.1c0,1.9,0.9,2.5,3,3.8L9.1,18c2,1.4,3.9,2.6,3.9,6C13.1,29.7,7.8,30.3,5.5,30.3z"/>
<path class="st0" d="M21,30.4c-2.4,0-3.8-0.9-4.4-2.8c-0.2-1-0.3-2.1-0.2-3.2c0-2.5,0-4.5,0-6.8v-1.1h-2v-0.6l0.2-0.1
	c0.6-0.2,1.2-0.6,1.8-1c1.1-0.9,1.9-2,2.6-3.2l0.4-0.6H20v3.5h5.3v1.9H20v8.2c0,2.5,0.5,3.9,2.8,3.9c0.7,0,1.3-0.1,1.9-0.4L25,28
	l0.3,0.6l-0.1,0.1C24.1,29.9,22.6,30.5,21,30.4z"/>
<path class="st0" d="M42.4,30.2v-0.8h0.3c0.5-0.1,1-0.3,1.3-0.7c0.5-0.5,0.5-1.9,0.5-4.6v-4.5c0-1.9,0-2.8-0.3-3.2
	c-0.4-0.4-0.9-0.6-1.4-0.5h-0.1h-0.3v-0.9h0.3H43c1,0,1.9-0.1,2.8-0.3c0.6-0.1,1.1-0.3,1.7-0.6l0.2-0.1l0.3,0.2v1.2
	c1.3-1,2.9-1.5,4.5-1.5c2.8,0,4.7,1.3,5.2,3.7c0.1,0.9,0.2,1.9,0.2,2.8v4.6c0,2.6,0.1,3.3,0.6,3.8c0.4,0.3,0.8,0.4,1.2,0.4h0.3v0.7
	h-0.8c-1.1-0.1-2.1-0.1-3.1-0.1c-1.2,0-2.4,0-3.6,0.1h-0.4v-0.7h0.3c0.5,0,0.9-0.2,1.3-0.5c0.5-0.5,0.5-1.7,0.6-2.8
	c0-0.2,0-0.4,0-0.5c0-0.6,0-1.8,0-2.7c0-1.2,0-2.4-0.1-3.6c0-1.7-1.3-3-3-3c-0.1,0-0.2,0-0.3,0c-1-0.1-2,0.2-3,0.6v8.2
	c0,2.6,0.1,3.3,0.6,3.8c0.4,0.3,0.8,0.4,1.2,0.4h0.3v0.7h-0.8c-1.1-0.1-2-0.1-3-0.1c-1.2,0-2.4,0-3.6,0.1L42.4,30.2z"/>
<path class="st0" d="M61.9,30.2v-0.8h0.3c0.5,0,1-0.3,1.4-0.6c0.5-0.5,0.5-1.9,0.5-4.5v-7.8h-2v-0.9l0.2-0.1c0.7-0.2,1.3-0.6,1.8-1
	c0-1.4,0-2.8,0.2-4.2c0.6-3.2,2.7-4.8,6.2-4.8c1.4,0,2.7,0.4,3.8,1.2l0.1,0.1v0.3l-1.5,2.2h-0.4l-0.1-0.2C72.3,8,71.2,7.3,70,7.3
	c-0.6,0-1.1,0.2-1.6,0.6c-0.7,0.7-0.8,1.7-0.8,3.7v3h3.5v1.9h-3.5v8.7c0,2.1,0.1,3.1,0.3,3.5c0.4,0.7,1.8,0.7,2.2,0.7h0.3v0.8h-0.3
	c-1.7-0.1-3-0.1-3.9-0.1c-1.2,0-2.5,0-3.9,0.1L61.9,30.2z"/>
<path class="st0" d="M79.9,30.5c-4.8,0-7.6-3-7.6-8c0-3.9,2.1-8.4,8-8.4c4.8,0,7.6,3,7.6,8C87.9,26,85.8,30.5,79.9,30.5z M80.2,16
	c-0.8,0-1.6,0.2-2.2,0.7c-1.3,1.1-1.9,3-1.9,5.7c0,1.1,0.2,6.3,4.1,6.3c0.8,0,1.6-0.2,2.2-0.7c1.3-1,1.9-3,1.9-5.7
	C84.2,21.2,84,16,80.2,16z"/>
<path class="st0" d="M89.4,30.2v-0.8h0.3c0.5,0,1-0.3,1.4-0.6c0.5-0.5,0.5-1.8,0.5-4.5v-4.5c0-1.9,0-2.8-0.3-3.2
	c-0.4-0.4-0.9-0.6-1.4-0.5h-0.1h-0.3v-1h0.6c1,0,1.9-0.1,2.8-0.3c0.6-0.1,1.1-0.2,1.7-0.4l0.2-0.1l0.3,0.2v1.4
	c1-0.9,2.3-1.5,3.6-1.5c1-0.1,1.9,0.3,2.6,0.9l0.1,0.1v0.5l-1.3,2.4h-0.6l-0.1-0.1c-0.6-0.8-1.5-1.3-2.5-1.3c-0.6,0-1.2,0.2-1.7,0.5
	v7.9c0,2.1,0.1,3,0.3,3.5c0.4,0.7,1.8,0.7,2.2,0.7h0.3v0.9h-0.3c-1.7-0.1-3-0.1-3.9-0.1c-1.2,0-2.5,0-3.9,0.1L89.4,30.2z"/>
<path class="st0" d="M114,30.5l-0.4-0.1V29c-1.3,0.9-2.8,1.5-4.4,1.5c-4.3,0-7.1-3-7.1-7.6c0-1.5,0.3-2.9,0.8-4.2
	c1.4-2.9,4.3-4.6,7.5-4.5c1,0,2.1,0.1,3.1,0.3v-3.3c0-2,0-3-0.3-3.4c-0.4-0.4-0.9-0.6-1.4-0.5h-0.1h-0.3l0.1-0.7h0.3
	c1.1-0.1,2.3-0.3,3.4-0.5c0.5-0.1,1-0.2,1.6-0.3l0.2-0.1l0.3,0.2v0.2C117.1,7.2,117,10,117,12v12.8c0,1.9,0,3.1,0.3,3.5
	c0.4,0.4,0.9,0.6,1.4,0.6h0.4v0.8h-0.3c-1,0-2,0.1-3,0.3c-0.5,0.1-1.1,0.2-1.6,0.4L114,30.5z M110.4,16c-3.1,0-4.5,2.1-4.5,6.4
	c0,1.7,0.5,5.8,5,5.8h0.2c0.9,0,1.7-0.2,2.5-0.6V17.1C112.7,16.4,111.6,16,110.4,16L110.4,16z"/>
</svg>
