<?xml version="1.0" encoding="utf-8"?>
<!-- Generator: Adobe Illustrator 23.0.1, SVG Export Plug-In . SVG Version: 6.00 Build 0)  -->
<svg version="1.1" id="Layer_1" xmlns="http://www.w3.org/2000/svg" xmlns:xlink="http://www.w3.org/1999/xlink" x="0px" y="0px"
	 viewBox="0 0 245 29.8" style="enable-background:new 0 0 245 29.8;" xml:space="preserve">
<style type="text/css">
	.st0{fill:#666666;}
</style>
<g>
	<path class="st0" d="M219.7,13c-0.6,0-1,0.2-1.4,0.6c-0.3,0.4-0.5,0.9-0.5,1.7h3.9c0-0.8-0.2-1.3-0.6-1.7
		C220.8,13.2,220.3,13,219.7,13z"/>
	<path class="st0" d="M114.4,19.2c0,0.3,0.1,0.6,0.3,0.8s0.5,0.3,0.9,0.3c0.7,0,1.3-0.2,1.6-0.6c0.3-0.4,0.5-1,0.5-1.8
		c0-0.2,0-0.3,0-0.4c0.1,0,0.1-0.1,0.1-0.2c-0.4,0.2-1,0.4-1.7,0.6C115,18.2,114.4,18.7,114.4,19.2z"/>
	<path class="st0" d="M197.6,13.5c-0.6,0-1.1,0.2-1.4,0.7c-0.2,0.5-0.4,1.3-0.4,2.4s0.1,2,0.4,2.5s0.8,0.8,1.4,0.8
		c0.7,0,1.1-0.3,1.4-0.8s0.4-1.3,0.4-2.5c0-1.1-0.1-1.9-0.4-2.4S198.2,13.5,197.6,13.5z"/>
	<path class="st0" d="M80.8,13.5c-0.6,0-1.1,0.2-1.4,0.7c-0.2,0.5-0.4,1.3-0.4,2.4s0.1,2,0.4,2.5s0.8,0.8,1.4,0.8s1.1-0.3,1.4-0.8
		s0.4-1.3,0.4-2.5c0-1.1-0.1-1.9-0.4-2.4S81.4,13.5,80.8,13.5z"/>
	<path class="st0" d="M229.9,0H15.1C6.8,0,0,6.7,0,14.9s6.8,14.9,15.1,14.9h214.8c8.3,0,15.1-6.7,15.1-14.9C245,6.7,238.2,0,229.9,0
		z M41.3,22.8h-4.4v-6.4c0-0.9-0.1-1.5-0.3-1.9C36.3,14.2,36,14,35.4,14s-1,0.2-1.3,0.6c-0.3,0.4-0.4,1.1-0.4,1.9v6.4h-4.4V10.5
		h-3.2v12.4h-4.9V10.5h-4.3V6.1h12.4h1.2h3.2v5.6c0.4-0.5,0.9-0.9,1.5-1.2s1.2-0.4,1.9-0.4s1.4,0.2,1.9,0.4c0.6,0.2,1,0.6,1.4,1.1
		c0.3,0.5,0.6,1,0.7,1.7c0.2,0.6,0.2,1.7,0.2,3.1C41.3,16.4,41.3,22.8,41.3,22.8z M55.3,17.8H47c0,0.8,0.2,1.4,0.6,1.8
		c0.4,0.4,0.9,0.6,1.5,0.6c0.4,0,0.8-0.1,1.1-0.3c0.2-0.1,0.4-0.4,0.5-0.7h4.2c-0.3,1.4-1,2.4-2,3.1s-2.4,1-4.1,1
		c-1.9,0-3.4-0.6-4.6-1.8c-1.1-1.2-1.7-2.8-1.7-4.8c0-2.1,0.6-3.7,1.7-4.9c1.1-1.2,2.7-1.8,4.7-1.8s3.5,0.7,4.7,2
		c1.1,1.3,1.7,3.1,1.7,5.5C55.3,17.5,55.3,17.8,55.3,17.8z M64.7,17.8c0.5,0.8,1.2,1.2,2.2,1.2c0.8,0,1.3-0.2,1.8-0.7
		c0.2-0.4,0.5-1.1,0.5-2h4.6c-0.1,2.2-0.8,3.9-2.1,5.1c-1.3,1.2-3,1.8-5.1,1.8c-2.4,0-4.3-0.8-5.7-2.4s-2.1-3.7-2.1-6.5
		c0-2.7,0.7-4.9,2.1-6.5c1.4-1.6,3.2-2.4,5.6-2.4c2.2,0,3.9,0.6,5.2,1.8c1.3,1.2,2,2.9,2.1,5h-4.6c-0.1-0.9-0.3-1.5-0.7-1.9
		s-1-0.7-1.8-0.7c-1,0-1.7,0.4-2.1,1.2c-0.5,0.8-0.7,1.9-0.7,3.5C63.9,15.8,64.2,17,64.7,17.8z M85.4,21.5c-1.1,1.2-2.7,1.8-4.6,1.8
		c-2,0-3.5-0.6-4.6-1.8c-1.1-1.2-1.7-2.8-1.7-4.9s0.6-3.7,1.7-4.8c1.1-1.2,2.7-1.8,4.6-1.8c2,0,3.5,0.6,4.6,1.8s1.7,2.8,1.7,4.8
		C87.1,18.7,86.5,20.3,85.4,21.5z M100.4,22.9H96v-6.4c0-0.9-0.1-1.6-0.3-1.9c-0.2-0.4-0.6-0.5-1.2-0.5s-1,0.2-1.3,0.6
		c-0.3,0.4-0.4,1-0.4,1.9V23h-4.4v-0.2V10.5h4v1.8c0.5-0.7,1.1-1.3,1.7-1.6c0.6-0.4,1.4-0.5,2.2-0.5c0.7,0,1.3,0.1,1.8,0.4
		s1,0.6,1.4,1.1c0.3,0.4,0.6,1,0.7,1.6s0.2,1.7,0.2,3.2L100.4,22.9L100.4,22.9z M109.1,23.1c-0.5,0-1,0.1-1.5,0.1
		c-0.4,0-0.9,0-1.3,0c-1.4,0-2.4-0.3-2.9-0.8c-0.6-0.5-0.8-1.4-0.8-2.8v-6.2H101v-2.8h1.6v-4h4.4v3.8h2.1v2.8H107v5.1h-0.1
		c0,0.4,0.1,0.7,0.3,0.9c0.2,0.2,0.6,0.3,1.2,0.3c0.2,0,0.3,0,0.4,0s0.2,0,0.3,0C109.1,19.5,109.1,23.1,109.1,23.1z M122.6,22.7
		h-4.4v0.1l-0.3-1.2c-0.6,0.6-1.2,1-1.8,1.2c-0.7,0.3-1.4,0.4-2.2,0.4c-1.3,0-2.2-0.3-2.9-1c-0.7-0.7-1-1.7-1-2.9s0.3-2.1,1-2.7
		s2-1,3.8-1.3c0.2,0,0.6-0.1,1-0.1c1.4-0.2,2.1-0.6,2.1-1.2c0-0.4-0.1-0.6-0.4-0.8s-0.7-0.2-1.2-0.2s-0.8,0.1-1.1,0.3
		c-0.2,0.2-0.4,0.5-0.4,0.9h-4.3c0-1.4,0.5-2.4,1.5-3.2c1-0.7,2.5-1.1,4.4-1.1c0.9,0,1.8,0.1,2.5,0.3c0.8,0.2,1.4,0.4,1.8,0.8
		c0.5,0.4,0.9,0.8,1.1,1.3s0.3,1.2,0.3,2.1v6.9c0,0.2,0,0.4,0.1,0.6s0.2,0.3,0.4,0.4V22.7z M128.3,22.9h-4.5v-0.1V10.5h4.5V22.9z
		 M128.3,9.1h-4.5V5.6h4.5V9.1z M141.9,22.9h-4.4v-6.4c0-0.9-0.1-1.6-0.3-1.9c-0.2-0.4-0.6-0.5-1.2-0.5c-0.6,0-1,0.2-1.3,0.6
		c-0.3,0.4-0.4,1-0.4,1.9V23h-4.4v-0.2V10.5h4v1.8c0.5-0.7,1.1-1.3,1.7-1.6c0.6-0.4,1.4-0.5,2.2-0.5c0.7,0,1.3,0.1,1.8,0.4
		s1,0.6,1.4,1.1c0.3,0.4,0.6,1,0.7,1.6c0.1,0.6,0.2,1.7,0.2,3.2V22.9z M155.9,17.8h-8.3c0,0.8,0.2,1.4,0.6,1.8
		c0.4,0.4,0.8,0.6,1.5,0.6c0.4,0,0.8-0.1,1.1-0.3c0.2-0.1,0.4-0.4,0.5-0.7h4.2c-0.3,1.4-1,2.4-2,3.1s-2.4,1-4.1,1
		c-1.9,0-3.4-0.6-4.6-1.8c-1.1-1.2-1.7-2.8-1.7-4.8c0-2.1,0.6-3.7,1.7-4.9c1.1-1.2,2.7-1.8,4.7-1.8s3.5,0.7,4.7,2
		c1.1,1.3,1.7,3.1,1.7,5.5L155.9,17.8L155.9,17.8z M165.2,15c-0.2,0-0.3,0-0.5,0s-0.3,0-0.4,0c-0.9,0-1.6,0.2-2,0.7
		c-0.4,0.4-0.6,1.2-0.6,2.1v5.1h-4.5v-0.1V10.5h4.1v2.3c0.3-0.9,0.7-1.6,1.3-2s1.3-0.6,2.2-0.6h0.4V15z M190.9,13.2h-2.1v5
		c0,0.4,0.1,0.7,0.3,0.9c0.3,0.2,0.6,0.3,1.2,0.3c0.2,0,0.3,0,0.4,0c0.1,0,0.2,0,0.2,0V23c-0.6,0.1-1.1,0.1-1.5,0.1
		c-0.5,0-0.9,0-1.3,0c-1.4,0-2.3-0.3-2.9-0.8c-0.5-0.6-0.8-1.5-0.8-2.8v-6.2h-1.6v-2.4h-4.2c-0.1-0.5-0.3-0.9-0.6-1.1
		c-0.4-0.3-0.8-0.4-1.4-0.4c-0.6,0-0.9,0.1-1.2,0.3s-0.4,0.5-0.4,0.9c0,0.6,0.7,1,2,1.4c0.1,0.1,0.2,0.1,0.3,0.1
		c0.2,0,0.5,0.1,0.9,0.2c1.7,0.4,2.9,0.9,3.4,1.3c0.7,0.5,1.2,1.1,1.5,1.7c0.3,0.6,0.5,1.3,0.5,2.2c0,1.9-0.5,3.3-1.7,4.3
		c-1.2,1-2.8,1.5-5,1.5c-2,0-3.6-0.5-4.8-1.5s-1.9-2.4-2-4.2h4.7c0.1,0.6,0.4,1,0.7,1.3s0.8,0.4,1.5,0.4c0.5,0,1-0.1,1.3-0.3
		s0.5-0.5,0.5-0.9c0-0.6-0.6-1.1-2-1.5c-0.2-0.1-0.5-0.2-0.6-0.2c-1.2-0.3-2-0.6-2.7-0.9c-0.6-0.2-1.1-0.5-1.4-0.7
		c-0.6-0.5-1-1.1-1.3-1.7c-0.3-0.6-0.4-1.4-0.4-2.2c0-1.6,0.6-2.9,1.7-3.9c1.2-0.9,2.7-1.4,4.7-1.4s3.5,0.5,4.6,1.4
		c1,0.8,1.6,2,1.8,3.4h1.2V6.6h4.4v3.8h2.1L190.9,13.2L190.9,13.2z M202.3,21.5c-1.1,1.2-2.7,1.8-4.6,1.8c-2,0-3.5-0.6-4.6-1.8
		c-1.2-1.2-1.7-2.8-1.7-4.9s0.6-3.7,1.7-4.8c1.1-1.2,2.7-1.8,4.6-1.8c2,0,3.5,0.6,4.6,1.8s1.7,2.8,1.7,4.8
		C204,18.7,203.4,20.3,202.3,21.5z M213,15c-0.2,0-0.3,0-0.5,0s-0.3,0-0.4,0c-0.9,0-1.6,0.2-2,0.7c-0.4,0.4-0.6,1.2-0.6,2.1v5.1H205
		v-0.1V10.5h4.1v2.3c0.3-0.9,0.7-1.6,1.3-2s1.3-0.6,2.2-0.6h0.4V15z M226.1,17.8h-8.3c0,0.8,0.2,1.4,0.6,1.8
		c0.4,0.4,0.9,0.6,1.5,0.6c0.4,0,0.8-0.1,1.1-0.3c0.2-0.1,0.4-0.4,0.5-0.7h4.2c-0.3,1.4-1,2.4-2,3.1s-2.4,1-4.1,1
		c-1.9,0-3.4-0.6-4.6-1.8c-1.1-1.2-1.7-2.8-1.7-4.8c0-2.1,0.6-3.7,1.7-4.9s2.7-1.8,4.7-1.8s3.5,0.7,4.7,2c1.1,1.3,1.7,3.1,1.7,5.5
		L226.1,17.8L226.1,17.8z M228,12.3c-1.4,0-2.5-1.1-2.5-2.4s1.1-2.4,2.5-2.4s2.4,1,2.4,2.4C230.4,11.2,229.3,12.3,228,12.3z"/>
	<path class="st0" d="M48.9,13c-0.6,0-1,0.2-1.4,0.6C47.2,14,47,14.5,47,15.3h3.9c0-0.8-0.2-1.3-0.6-1.7C50,13.1,49.5,13,48.9,13z"
		/>
	<path class="st0" d="M228,8c-1,0-1.8,0.9-1.8,1.9c0,1.1,0.8,1.9,1.9,1.9c1,0,1.8-0.8,1.8-1.9C229.8,8.9,229,8,228,8z M228.4,11.2
		c-0.1-0.1-0.1-0.3-0.2-0.6c0-0.2-0.2-0.4-0.5-0.4h-0.3v1H227V8.8c0.2,0,0.5-0.1,0.9-0.1c0.5,0,0.7,0.1,0.8,0.2
		c0.1,0.1,0.2,0.3,0.2,0.5c0,0.3-0.2,0.5-0.5,0.6c0.2,0.1,0.3,0.3,0.4,0.6c0.1,0.4,0.1,0.5,0.2,0.6C229,11.2,228.4,11.2,228.4,11.2z
		"/>
	<path class="st0" d="M149.5,13c-0.6,0-1,0.2-1.4,0.6c-0.3,0.4-0.5,0.9-0.5,1.7h3.9c0-0.8-0.2-1.3-0.6-1.7
		C150.6,13.2,150.1,13,149.5,13z"/>
	<path class="st0" d="M228.5,9.5c0-0.2-0.2-0.4-0.5-0.4c-0.1,0-0.2,0-0.3,0v0.7h0.2C228.2,9.8,228.5,9.7,228.5,9.5z"/>
</g>
</svg>
