<?xml version="1.0" encoding="utf-8"?>
<!-- Generator: Adobe Illustrator 23.0.1, SVG Export Plug-In . SVG Version: 6.00 Build 0)  -->
<svg version="1.1" id="Layer_1" xmlns="http://www.w3.org/2000/svg" xmlns:xlink="http://www.w3.org/1999/xlink" x="0px" y="0px"
	 viewBox="0 0 192.8 192.8" style="enable-background:new 0 0 192.8 192.8;" xml:space="preserve">
<style type="text/css">
	.st0{fill:#666666;}
</style>
<g>
	<path class="st0" d="M55.3,82.7c5.8-17.8,19.4-31.4,42.1-31.4c21.1,0,36.7,13.9,42.3,31.7c-5.9-16.6-22.6-28.7-42.3-28.7
		C77.9,54.4,61.4,66.2,55.3,82.7L55.3,82.7z"/>
	<path class="st0" d="M139.5,109.9c-5.6,17.8-21.7,31.6-42.1,31.6c-21.6,0-36.2-13.6-41.9-31.2c6.1,16.5,22.6,28.2,41.9,28.2
		C116.9,138.4,133.6,126.5,139.5,109.9L139.5,109.9z"/>
	<path class="st0" d="M108.8,81.9c-0.8,0.3-1.9,0-2.7,0.7c0-0.2-0.2-0.5-0.5-0.3h-0.3c0.8-0.7-0.5-1.4,0.8-1.4
		C107.1,80.8,107.9,81.5,108.8,81.9L108.8,81.9z"/>
	<polygon class="st0" points="189.9,103.4 189.9,99 188.7,100 180.8,100 180.8,88.3 181.8,87 175,87 176,88.3 176,102.2 175,103.4 	
		"/>
	<path class="st0" d="M162.6,97.5h-5.4l2.7-5.8L162.6,97.5L162.6,97.5z M170.4,103.4l-8-16.5h-5.6l0.7,1.4l-7.5,15.1h6.1l-1-1.2
		l0.8-1.7h7.8l0.8,1.7l-1.2,1.2H170.4L170.4,103.4z"/>
	<path class="st0" d="M146,98.7c0-2.7-2.2-4.1-5.3-5.1c-1.9-0.7-4.8-1-4.8-2.4c0-0.7,0.8-1,2.2-1c1.7,0,4.6,0.7,7,1.7v-5.4l-1.4,1.2
		c-1.4-0.5-3.7-1-5.4-1c-5.6,0-7.3,2.4-7.3,4.6c0,3.1,1.9,4.4,5.1,5.6c2.4,0.8,4.6,0.8,4.6,2.2c0,1.2-1.4,1.4-2,1.4
		c-1.7,0-4.9-0.7-7.6-2.5v6.1l1.4-1.4c1.2,0.5,4.1,1.4,6.5,1.4C143.7,103.9,146,101.7,146,98.7L146,98.7z"/>
	<path class="st0" d="M119.5,92.4c0,1.2-1.2,2-2.7,2h-3.2v-4.1h3.7C118.4,90.4,119.5,91,119.5,92.4L119.5,92.4z M125.1,103.4
		l-4.4-6.5c2.2-0.8,3.7-2.5,3.7-4.9c0-2.9-1.7-5.1-6.5-5.1h-10.2l1,1.4v13.9l-1,1.2h6.8l-1-1.2v-4.8h2l3.2,4.8l-1,1.2H125.1
		L125.1,103.4z"/>
	<polygon class="st0" points="101.5,103.4 101.5,99 100.3,100 91.8,100 91.8,96.8 97.2,96.8 98.4,97.8 98.4,92.6 97.2,93.6 
		91.8,93.6 91.8,90.4 100.3,90.4 101.5,91.5 101.5,87 86,87 87,88.3 87,102.2 86,103.4 	"/>
	<polygon class="st0" points="81.9,87 76,87 77,88.3 72.9,97.3 68.9,88.3 70.1,87 63.1,87 70.7,103.4 74.1,103.4 	"/>
	<polygon class="st0" points="58.9,103.4 57.8,102.2 57.8,88.3 58.9,87 51.9,87 52.9,88.3 52.9,102.2 51.9,103.4 	"/>
	<polygon class="st0" points="45.4,87 39.7,87 40.7,88.3 40.7,96.5 32.2,87 27.1,87 28.1,88.3 28.1,102.2 27.1,103.4 32.9,103.4 
		31.9,102.2 31.9,93.7 40.7,103.4 44.4,103.4 44.4,88.3 	"/>
	<path class="st0" d="M21.5,87h-7l1,1.4v9c0,2-1.4,2.9-3.4,2.9s-3.4-0.8-3.4-2.9v-9l1-1.4h-7l1,1.4v9.2c0,4.6,2.5,6.3,8.3,6.3
		c5.6,0,8.1-1.7,8.1-6.3v-9.2L21.5,87L21.5,87z"/>
	<path class="st0" d="M110.8,82.4c-0.2,0.2-0.3,0.3-0.7,0.3V82C110.3,82,110.5,82.2,110.8,82.4L110.8,82.4z"/>
	<path class="st0" d="M128.1,108.9c-0.3-0.5,0-1.2,0-1.2h-24.8l2.7,2.4c0.7,0.3,1.4,0.8,1.7,1.9c0.8,2.2-0.3,0.3-0.3,3.7
		c0,3.1-0.8,2.5-0.8,2.5s-0.2,3.6-2,5.8c-1.2,1.2-0.3,2.2-0.3,2.2s-0.3,0.3-1,2.9c-0.2,0.8,1,2.2,1.9,1.9c0.7-0.3-1.7-0.5,1-1.7
		c1-0.3,0.2-1.2,0.2-1.2s1.7-0.2,2.5-2.7c1.7,0.3,1.2-0.7,4.6-1.5c1-0.2,1.2-0.5,1-1.4c-0.2-0.8,1.2,0.2,4.6-3.4
		c2.7-2.7,1.7-3.4,3.6-4.4c2-1,2.2,0.2,2.9-0.7c1.5-2,1-1.9,1.7-3.2l0.3-0.7C127.4,110,128.5,109.2,128.1,108.9L128.1,108.9z"/>
	<path class="st0" d="M86.9,80.2c-1-1.4-0.3-3.2,0.7-5.1c0.8-1.2,2.9-1.9,4.6-1.2c2-1.5,2.5,0.2,4.2-0.7c2.2-0.8,1,2.7,3.2,3.6
		c0.8-2.4-2-4.2-0.2-5.4c1.4-0.8,2.4-1.4,2.9-2.4c0.8-1.5,1-2.7,1.7-2.9c1.4-0.5,1-1.9,1-1.9s1.5,0.5,2.7-0.7
		c-0.8-0.5-2.2-0.8-1.9-1.9c0.5-1,3.4,1.2,4.4-0.7c-1.9-0.7-3.7-2.4-4.8-2.9c-0.8,0.8-1.2,0.5-2.2-0.2c-1.7-1.4-1.7-0.2-2.7-1
		c-0.8,1.7,0.3,1.5,0.7,1.9c1,1.2-1-1-0.8,2c0,0.7-1,0.8-1.9-0.8c-0.5-0.8-3.9-0.7-4.4-1.5c0.5-0.8,4.6-4.2,10.9-3.4
		c-9.2-3.7-21.6,0.2-21.6,1.5c-1.4,0.8-0.8,1.7-1.5,1.9c-1,0.5-2.2,3.7-2.2,3.7s0.7,0.3-1.4,2.7c-1.7,1.9-2.2,4.8-2.2,4.8
		s1.2,2,0.8,4.4c-0.2,1.9-0.2,0.5,0.7,1.7c0.3,0.8,0.8,3.6,1.2,2.5c0.5-2-1-3.9-0.8-5.9c0.2,0.3,0.7-0.7,0.7,0.2
		c0,2.5,3.1,7.1,3.1,7.1s-1.2,1.2,0,1.2l-0.3,0.7c0,0,0.8,0,1.5,0.5c0.5,0.5,1,1,1.5,1c1.2,0,8.8,0,8.8,0s0.7-2.7,1.2-3.1
		c0.5-0.5-1,0-1.5-0.5s-0.7,0.3-1,0.8c-0.2,0.5-0.5,1.2-1.2,1.5c-0.7,0.2-2.2,0.3-2.5,0.3C87.9,82.2,86.9,80.2,86.9,80.2L86.9,80.2z
		"/>
	<path class="st0" d="M98.4,78.6c0.2-0.5,1-0.2,1.7-0.2s0.5,1.2,1.5,1c1.2-0.3,1.2,1,2.7,0.8c1.5,0-0.3,0.7-0.3,0.7s-1-0.5-1.5-0.2
		c-0.3,0.2,0-0.2-0.5-0.5c-0.8-0.8-0.7,0-2-1.2C98.9,78.3,97.9,79.3,98.4,78.6L98.4,78.6z"/>
</g>
</svg>
