<?xml version="1.0" encoding="utf-8"?>
<!-- Generator: Adobe Illustrator 23.0.1, SVG Export Plug-In . SVG Version: 6.00 Build 0)  -->
<svg version="1.1" id="Layer_1" xmlns="http://www.w3.org/2000/svg" xmlns:xlink="http://www.w3.org/1999/xlink" x="0px" y="0px"
	 viewBox="0 0 277.8 20.3" style="enable-background:new 0 0 277.8 20.3;" xml:space="preserve">
<style type="text/css">
	.st0{fill-rule:evenodd;clip-rule:evenodd;fill:#666666;}
</style>
<g>
	<path class="st0" d="M277.8,5.1h-0.9l-1.1,2.6l-1.1-2.6h-0.9v3.7h0.6V5.7l0,0l1.2,3.1h0.3l1.3-3.1l0,0v3.1h0.6V5.1L277.8,5.1z
		 M273.2,5.1h-3v0.6h1.2v3.1h0.6V5.7h1.2L273.2,5.1L273.2,5.1z"/>
	<polygon class="st0" points="3.1,0 10.4,16.7 17.8,0 21,0 12.1,19.9 8.7,19.9 0,0 	"/>
	<path class="st0" d="M32.3,6.2H36l6.7,13.7h-3.1L38.2,17h-8l-1.4,2.9h-3.1L32.3,6.2L32.3,6.2z M31.5,14.2h5.3l-2.7-5.4L31.5,14.2
		L31.5,14.2z"/>
	<polygon class="st0" points="54.9,6.2 54.9,19.9 52.2,19.9 52.2,6.2 	"/>
	<polygon class="st0" points="69.5,6.2 69.5,17.1 77.4,17.1 77.4,19.9 66.7,19.9 66.7,6.2 	"/>
	<path class="st0" d="M117.8,0c3.2,0,6.2,1.6,6.2,5.7c0,4.3-2.9,5.7-4.6,5.8l4.1,8.4h-3.3l-4-8.3h-7.4v8.3h-2.9V0H117.8L117.8,0z
		 M108.9,2.9v5.9h8.9c2.1,0,3.4-1.1,3.4-3.1c0-2.3-1.7-2.8-3.4-2.8L108.9,2.9L108.9,2.9z"/>
	<polygon class="st0" points="148.1,6.2 148.1,8.9 138.7,8.9 138.7,11.4 143.6,11.4 143.6,14.2 138.7,14.2 138.7,17.1 148.4,17.1 
		148.4,19.9 135.9,19.9 135.9,6.2 	"/>
	<path class="st0" d="M160.1,15.5c2.4,1.5,4.7,2.1,7.1,2.1c1.4,0,3.7-0.3,3.7-1.9c0-1.1-1.2-1.4-2.1-1.4l-4.1-0.1
		c-3.4-0.1-5-2-5-4.2c0-2,1.5-4.2,6.4-4.2c3.6,0,5.8,1.4,6.6,1.8l-1.2,2.4c-1.1-0.6-3.1-1.5-5.8-1.5c-1.5,0-3.3,0.3-3.3,1.5
		c0,1.1,1.5,1.3,2.4,1.3l3.6,0.1c3.2,0.1,5.2,1.4,5.2,4.3c0,2.5-1.9,4.5-6.5,4.5c-3.7,0-6.4-0.9-8.4-2.4L160.1,15.5L160.1,15.5z"/>
	<path class="st0" d="M183.1,13c0-3.8,3-7.3,8.4-7.3s8.4,3.4,8.4,7.3c0,3.8-3.1,7.3-8.4,7.3C186.2,20.3,183.1,16.9,183.1,13
		L183.1,13z M197.2,13c0-2.4-2.3-4.5-5.7-4.5s-5.7,2.2-5.7,4.5c0,2.4,2.3,4.5,5.7,4.5C195,17.6,197.2,15.4,197.2,13L197.2,13z"/>
	<path class="st0" d="M219.9,6.2c2.5,0,5,1,5,4.1c0,2.6-1.8,3.6-3.1,4.1l3.5,5.6h-3.5l-3.5-5.6h-4.4V20h-2.8V6.2H219.9L219.9,6.2z
		 M213.9,8.9v2.6h6c0.8,0,2.2-0.1,2.2-1.3c0-1.3-1.2-1.3-2.2-1.3H213.9L213.9,8.9z"/>
	<polygon class="st0" points="248.1,6.2 248.1,8.9 243.1,8.9 243.1,19.9 240.3,19.9 240.3,8.9 235.2,8.9 235.2,6.2 	"/>
	<path class="st0" d="M256.2,15.5c2.4,1.5,4.7,2.1,7.1,2.1c1.4,0,3.7-0.3,3.7-1.9c0-1.1-1.2-1.4-2.1-1.4l-4.1-0.1
		c-3.4-0.1-5-2-5-4.2c0-2,1.5-4.2,6.4-4.2c3.6,0,5.8,1.4,6.6,1.8l-1.2,2.4c-1.1-0.6-3.1-1.5-5.8-1.5c-1.5,0-3.3,0.3-3.3,1.5
		c0,1.1,1.5,1.3,2.4,1.3l3.6,0.1c3.2,0.1,5.2,1.4,5.2,4.3c0,2.5-1.9,4.5-6.5,4.5c-3.7,0-6.4-0.9-8.4-2.4L256.2,15.5L256.2,15.5z"/>
</g>
</svg>
