<?xml version="1.0" encoding="utf-8"?>
<!-- Generator: Adobe Illustrator 23.0.1, SVG Export Plug-In . SVG Version: 6.00 Build 0)  -->
<svg version="1.1" id="Layer_1" xmlns="http://www.w3.org/2000/svg" xmlns:xlink="http://www.w3.org/1999/xlink" x="0px" y="0px"
	 viewBox="0 0 556.2 97.2" style="enable-background:new 0 0 556.2 97.2;" xml:space="preserve">
<style type="text/css">
	.st0{fill:#666666;}
</style>
<title>Untitled-1</title>
<path class="st0" d="M72.6,48.9L92.7,19l-34.8,9.4L35.6,0l-1.7,36L0,48.4l33.7,12.8l1.3,36l22.6-28.1L92.3,79L72.6,48.9z M53.9,57.6
	c0,0-5.9,7.3-9.8,12.2c-0.2-6.3-0.6-15.6-0.6-15.6s-8.7-3.3-14.6-5.6l14.6-5.4l0.1-1.8c0,0,0.3-7.5,0.7-13.7
	c3.9,4.9,9.6,12.3,9.6,12.3l15-4.1c-3.5,5.2-8.7,13-8.7,13s5.1,7.8,8.5,13.1L53.9,57.6z"/>
<path class="st0" d="M234.7,53.1c0.2-5.6,3-12.8,9.8-12.8c7,0,9.4,7,8.9,12.8H234.7z M261.5,56.2c0-9.8-6.9-18.6-16.9-18.6
	c-11.2,0-18.4,10.9-18.4,21.5c0,11.3,8.2,20.8,19.4,20.8c6.6,0,12.2-4.1,15.6-9.8l-1.4-1.3c-3.1,4.5-7.8,7.5-13.1,7.5
	c-10,0-12.4-12-12.4-20.1C234.3,56.2,261.5,56.2,261.5,56.2z"/>
<path class="st0" d="M275.4,67.6c0,7.8,0,8.3,5.4,8.9V79H263v-2.4c5.3-0.7,5.3-1.2,5.3-8.9V49.9c-0.2-4.4-0.3-6-5.2-6v-2l12.3-4.9
	v9.8c3-3.9,6.2-9.7,11.5-9.7c2.6-0.1,4.9,1.9,5,4.6c0,0.1,0,0.2,0,0.2c0.2,2.4-1.6,4.5-4,4.6c-0.1,0-0.2,0-0.3,0
	c-2.8,0-2.8-2.4-5.4-2.4c-2.8,0-5.5,4-6.8,6.3V67.6z"/>
<path class="st0" d="M306.4,67.6c0,7.8,0,8.3,5.5,8.9V79h-18v-2.5c5.5-0.7,5.5-1.2,5.5-8.9V49.9c-0.2-4.4,0.4-6-4.5-6v-2l11.6-4.9
	L306.4,67.6L306.4,67.6z"/>
<path class="st0" d="M347.5,69.1c-3.9,6-9.6,10.8-16.9,10.8c-10.5,0-18-9.8-18-20.1c0-12.2,8.1-22.2,20.5-22.2
	c4.6,0,13.1,2.9,13.1,8.7c0,2.3-1.9,4.2-4.3,4.2c0,0,0,0-0.1,0c-6,0-3.6-10.1-11.3-10.1c-8.3,0-9.9,11.3-9.9,17.6
	c0,7.9,4.2,17.6,13.2,17.6c5.5,0,9-3.7,12.4-7.5L347.5,69.1z"/>
<path class="st0" d="M373.3,70.8c-2,2.3-5.7,4.7-8.7,4.7c-3.2,0-5.9-2.5-5.9-6.4c0-6.9,8.9-10.9,14.6-11.8V70.8z M373.3,54.5
	c-8.2,1.7-22.1,4.5-22.1,15.5c0,5.9,3.8,9.8,9.4,9.8c4.8,0,9.2-2.7,12.9-5.8c0.3,3.2,2.2,5.8,5.5,5.8c3.8,0,6.2-2.7,8.2-5.8l-1-1.7
	c-1,1.1-1.9,2.1-3.3,2.1c-2.4,0-2.4-3.7-2.4-5.6V49.9c0-3.5,0-7-2.9-9.4c-2.7-2.3-6.8-2.9-10.2-2.9c-5.2,0-14.6,2.6-14.6,9.5
	c-0.1,1.9,1.4,3.6,3.3,3.6c0.1,0,0.3,0,0.4,0c2.9,0,3.9-1.6,4.6-4.2c0.9-3.5,2.6-6.3,6.6-6.3c4.8,0,5.6,4.7,5.6,8.8L373.3,54.5
	L373.3,54.5z"/>
<path class="st0" d="M400.5,67.6c0,7.8,0,8.3,5.4,8.9V79H388v-2.4c5.5-0.7,5.5-1.2,5.5-8.9V49.9c-0.2-4.4-0.3-6-5.2-6v-2l12.3-4.9v7
	c3-3.4,8.1-6.5,12.6-6.5c2.9,0,5.6,1.2,7.6,3.2c2.7,3.1,2.7,6.9,2.7,10.8v16c0,7.8,0,8.3,5.4,8.9V79h-18v-2.4
	c5.5-0.7,5.5-1.2,5.5-8.9V53.2c0-5-0.3-11.2-6.6-11.2c-3.5,0-6.8,3-9.2,5.5L400.5,67.6L400.5,67.6z"/>
<path class="st0" d="M485.9,32.7l-2.3,1.1c-4-6.6-10.1-13.5-18.4-13.5c-14,0-18.1,19.2-18.1,30.5c0,11.1,5.8,26.4,18.6,26.4
	c9.1,0,11.7-6.1,11.7-14.6c0-7.2-2.3-8-8.9-8v-2.7h22.9v2.7c-6.9,0.2-6.9,4.6-6.9,10.6v12.3c-1.1-0.4-2.2-0.6-3.4-0.7
	c-5.5,0-10.4,3-17.1,3c-16.9,0-26.2-13.5-26.2-29.8c0-15.1,9.2-32.5,25.7-32.5c4.5,0,7.9,1.5,10.8,1.5c2.2-0.1,4.3-0.7,6.1-1.9
	L485.9,32.7z"/>
<path class="st0" d="M543.6,30c0-7.2-1.1-6.9-6.8-7.3v-2.4l13.9-3.7v52c0,7.8,0,7.3,5.5,8V79h-18v-2.4c5.4-0.7,5.4-1.2,5.4-8.9
	L543.6,30L543.6,30z"/>
<path class="st0" d="M534.7,37.1c-5.3,0-8.5,5.8-11.5,9.7V37l-12.3,4.9v2c4.9,0,5,1.6,5.2,6v17.7c0,7.8,0,8.3-5.3,9l0,0
	c-5.4-0.7-5.4-1.2-5.4-8.9V37.1L493.7,42v2c4.9,0,4.3,1.6,4.5,6v17.6c0,7.7,0,8.3-5.5,8.9V79h35.7v-2.5c-5.4-0.7-5.4-1.1-5.4-8.9
	V50.5c1.4-2.3,4-6.3,6.8-6.3c2.6,0,2.6,2.4,5.4,2.4c2.4,0,4.3-1.9,4.3-4.3c0-0.1,0-0.2,0-0.3c0-2.7-2.2-4.8-4.8-4.8
	C534.8,37.1,534.7,37.1,534.7,37.1z"/>
<path class="st0" d="M219.8,67.6v-14c0-3.7,0.1-8.3-1.7-11.4c-1.9-3.3-5.1-4.5-8.6-4.5c-5.7,0-9.9,3.7-13.8,7.6
	c-1.5-4.3-5-7.6-9.6-7.6c-5.3,0-10.2,3.4-13.3,7.6v-8.2L160.6,42v2c4.9,0,5,1.6,5.2,6v17.7c0,7.1,0,8.1-4.2,8.7l0,0
	c-2-0.1-3.9-1-5.2-2.5c-2.2-2.4-4.3-9.3-5.3-12.5l-14.6-45l-7.5,1.9l-14.7,45.4c-1.8,5.7-4,12.6-10.9,12.7V79H124v-2.7
	c-3.3,0-7.5-0.6-7.5-4.8c0-2.4,2.4-8.9,3.2-11.3l1-3.2h20.4l3.3,10.2c0.7,1.7,1.1,3.5,1.3,5.3c0,4.3-5,3.5-7.8,3.7V79h40.3v-2.4
	c-5.5-0.7-5.5-1.2-5.5-8.9V48c2.4-3,6.1-6,10.3-6c6,0,6.1,6.4,6.1,10.8v14.8c0,7.8,0,8.3-5.4,8.9V79h17.9v-2.4
	c-5.4-0.7-5.4-1.2-5.4-8.9V48c2.6-3,6.4-6,10.5-6c5.9,0,5.9,6.4,5.9,10.8v14.8c0,7.8,0,8.3-5.5,8.9V79h17.9v-2.4
	C219.8,75.9,219.8,75.4,219.8,67.6z M122,53.3l9-27.8l9,27.8L122,53.3z"/>
<circle class="st0" cx="301.4" cy="26.3" r="4.4"/>
<circle class="st0" cx="500.2" cy="26.3" r="4.4"/>
</svg>
