<?xml version="1.0" encoding="utf-8"?>
<!-- Generator: Adobe Illustrator 23.0.1, SVG Export Plug-In . SVG Version: 6.00 Build 0)  -->
<svg version="1.1" id="Layer_1" xmlns="http://www.w3.org/2000/svg" xmlns:xlink="http://www.w3.org/1999/xlink" x="0px" y="0px"
	 viewBox="0 0 481.9 201.1" style="enable-background:new 0 0 481.9 201.1;" xml:space="preserve">
<style type="text/css">
	.st0{fill:#666666;}
</style>
<g id="Hintergrund">
</g>
<g id="Hilfslinien">
</g>
<g id="Vordergrund">
	<path class="st0" d="M76.3,92.1c-18,1.3-41,4.7-40.8,11c0.2,6.6,17.1,19.2,39.4,27.5C75.9,117,76.2,102.8,76.3,92.1z M10.5,24.2
		c-5.9,0.2-10.4-2.4-10.5-6C-0.1,15.6,5.7,7.3,9.2,6C11.6,5.1,23.4,0.6,43,0c7.3-0.2,19.6,0.7,30,2.2c60.5,9,124.1,55.1,125.3,96.1
		c0.8,27.9-23.2,54-70.2,55.4c-12.4,0.4-23.9-1.2-34.4-3.9c-0.2,6.8,0.3,10.5-9.4,10.7c-5.9,0.2-8.2-9.4-9.1-17.2
		c-28.4-12.6-45.4-33-45.7-41.1c-0.4-12,21.5-22,47-26c0.4-9.9,2-35.3,7.3-35.4c2.1-0.1,6.5,4.8,8.1,12.3c1.5,6.8,1.7,19.2,1.7,21.4
		l1.9-0.1c35.8-1.1,57.3,10.1,57.7,23.4c0.3,10.3-8.8,15.6-13.6,15.7s-10.4-2.6-10.4-4.1c-0.1-2.8,10.2-3.5,10.1-8.1
		c-0.2-6.9-28.7-9.9-46.3-10c0,6-0.1,13.1,0,18c0.1,4.6,0.4,16.6,0.6,26.6c8,1.7,16.2,2.6,24.2,2.4c18.9-0.6,62.2-7.5,61.2-40
		c-1.3-45.3-91-87-139.1-85.6C21,13.3,9.6,15.3,9.7,17.2c0,1.2,9.2,1.7,9.3,4.2C19,23.8,13.7,24.1,10.5,24.2z"/>
	<path class="st0" d="M211.9,73.8c3.1-0.1,7.5,7.3,7.7,12c0.1,4.6,1.2,28.9,1.6,35.9c0.3,7,0.1,13.7-0.4,16.8
		c-0.5,3.1-1.6,4.6-6.9,4.8c-5.3,0.2-7.8-3-8.2-7.7c-0.5-4.7-0.8-18-0.6-24.6c0.2-6.7,0.5-19.4,1.4-27.3
		C207.3,75.6,209.5,73.9,211.9,73.8z"/>
	<path class="st0" d="M242.7,19.4c-0.9-2.2-3.8-6.7-14.4-6.3c-23,0.7-40.7,17.7-40.3,31.2c0.1,4.4,2.2,8.2,5.3,11.3
		c-0.8,2.2-0.9,3.7-0.9,4.5c0.1,2.3,3.6,8.5,6.3,8.4c2.3-0.1,3.8-2.2,6-5.7c3.8,1.4,7.5,2.2,10.5,2.1c21.6-0.6,41.3-20.9,40.9-33.9
		C255.9,25,252,19.2,242.7,19.4z M210,51.6c2.7-3.8,16.5-22.2,30.7-22.7c4.2-0.1,5.3,2.5,5.4,5.3c0.1,4.4-7.9,17.4-26.1,18
		C216.1,52.3,212.7,52,210,51.6z M198.8,45.4c-0.3-0.5-0.6-1.4-0.7-2.8c-0.1-3,5-14.4,17.9-15.3c-3.3,2.3-6.6,5.1-9.9,8.8
		C203.1,39.7,200.6,42.8,198.8,45.4z"/>
	<path class="st0" d="M268,72.6c12.7-0.4,28.5,1.3,28.6,5.3c0.1,2.4-1.2,7.3-7.9,8c-8,0.8-48.2,2.5-48,7.5
		c0.1,2.6,12.2,3.2,23.2,3.9c11.4,0.7,29.7,1.1,30.2,19.5c0.4,14.5-5.1,17.6-7.5,18.8c-3.1,1.5-13.7,5.5-21.8,5.7
		c-24.4,0.7-34.5-13.3-34.7-20.4c-0.2-6.3,6.3-11.9,17.3-12.3c11-0.3,27.9,3.6,28,8.1c0.1,3.7-7.4,5.5-10.7,5.6
		c-14.9,0.4-14.2-5.6-22.8-5.4c-4.9,0.1-11.8,10.6,12.8,9.8c21.9-0.7,28.5-7.9,28.4-11.7c-0.2-5.1-15.9-7.6-25-8.1
		s-22.7-0.4-27.4-3.4c-4.7-2.9-4-9.6-2.4-15.1C231.8,77,255.4,73,268,72.6z"/>
	<path class="st0" d="M311.3,77.4c8.6-0.3,26.5,38.5,29.5,38.5c3-0.1,0.8-9.1-1.1-19c-4.3-22.4-11.1-34-4.7-34.2
		c4.7-0.1,20,14.7,20.9,43.5c0.4,13.3-1.5,30.8-13.6,31.2c-11.5,0.3-24.5-35.9-27.5-35.8c-1.6,0-1.7,22.4-2.2,29.2
		c-0.4,6.7-2.8,10.4-6.5,10.5c-5.7,0.2-8.2-5.3-8.5-16.1C297.2,114.3,300.7,77.7,311.3,77.4z"/>
	<path class="st0" d="M398.3,98.3c4.1-0.1,7.6-0.8,7.3,4.5c-0.4,5.3-0.6,7.4-4.8,7.5l-21.7,0.6c-0.7,2.4-2.6,8.6-3.4,11.2
		c-1,3.3,2.2,2.6,6.5,1.3c4.2-1.2,15.8-3.4,20.5-3.5s8.3,7.4,5.6,10c-2.7,2.6-17.4,15-32.7,15.4c-6.6,0.2-15.5-5.5-15.8-15.8
		c-0.2-5.4,2-12.7,4.1-18.4c-0.5-0.3-0.9-1.1-1.2-2.7c-0.7-3.7-2.3-7.8,3.8-8.4c0.5-0.1,1.1-0.1,1.8-0.2l5.1-10.5
		c-2.1-0.3-3.8-0.8-5.2-1.4c-3.7-1.8-6.6-6.4-6.7-8.4c-0.1-4.5,32.9-7.2,40.5-7.4c8.2-0.2,10.5,1.3,13.2,5.1
		c2.6,3.7,3.6,6.4,3.6,7.4s-0.9,3.6-10.8,3.9c-5.1,0.2-13.3,1-21.2,1.3l-3.4,9.1C391.1,98.6,398.3,98.3,398.3,98.3z"/>
	<path class="st0" d="M420.7,129.6c-8.9,17.5-14.8,36-14.4,50c0.5,15.7,10.1,21.6,13.1,21.5c2.9-0.1,3.1-4.7,3.6-8.2
		c3-19.6,8.1-37,14-51.7c2.3,0.6,4.6,0.9,6.8,0.8c18-0.5,38.8-22,38.2-44.9c-0.4-12.1-5-20.6-12.7-20.4
		c-11.3,0.3-27.6,17.5-40.7,38.9c-1.2-8.7,5.7-22.1,11.6-31.5c4.1-6.6,3.4-14.4,1.7-14.4c-2.4,0.1-25.6,19.7-24.8,46.7
		C417.1,121.6,418.4,126,420.7,129.6z M444.7,124.1c10.8-21.2,22-33.2,25.9-33.4C477.4,90.6,471.7,121.4,444.7,124.1z"/>
</g>
</svg>
