<svg enable-background="new 0 0 174.3 34.5" viewBox="0 0 174.3 34.5" xmlns="http://www.w3.org/2000/svg"><g fill="#666"><path d="m133.1 24.9h7.2l-.5 3.1-1.8-.1-1.1 6.5h-3.4l1-6.5-1.9.1z"/><path d="m141.3 24.9h3.4l-1.5 9.5h-3.4z"/><path d="m146.3 24.9h4.2c2.1 0 3.8.9 3.4 3.3-.1 1.2-1 2.2-2.2 2.5v.1c.2.2.4.4.5.6l1.6 3.1h-4l-1-3h-.1l-.5 3h-3.4zm2.7 4.2h.2c.5.2 1.1-.2 1.2-.7v-.1c.1-.7-.4-.8-1-.8h-.3z"/><path d="m155.8 24.9h6.3l-.4 2.6h-2.9l-.1.9h2.6l-.4 2.4h-2.6l-.2 1h3l-.4 2.6h-6.5z"/><path d="m163.2 31 .1.1c.5.5 1.2.8 2 .9.4.1.8-.2 1-.6.1-.4-.4-.5-.7-.5l-.7-.2c-1.3-.2-2.3-1-2.1-2.5.4-2.2 2.6-3.5 4.7-3.5 1 0 2 .3 2.9.8l-1.3 2.4c-.5-.4-1.2-.7-1.9-.7-.4 0-.7.2-.8.5-.1.4.4.4.6.5l.8.2c1.4.3 2.3 1.1 2.1 2.7-.4 2.3-2.6 3.4-4.6 3.4-1.2 0-2.4-.3-3.5-.9z"/><g clip-rule="evenodd" fill-rule="evenodd"><path d="m15.5 7.3-2.5 11.9h-8.4l2.8-13.7c1.2-4.7 6.2-5.5 7.8-5.5h24.4l-5.4 5.7h-16.7c-1-.2-1.9.6-2 1.6z"/><path d="m24.1 19.1 16.9-16.8c1.8-1.7 5.1-2.3 6.5-2.3h12.1l-4.1 19.2h-8.2l3.4-16.7-11.5 11.7h8.7l-3.5 5z"/><path d="m58.7 19.1 4-19.1h8.5l-3 14h16.3l-3.6 5.2z"/><path d="m88.2 0-4 19.2h8.5l1.8-9.3 9.1 9.2h10l-9.4-9.1 14-10h-12l-11.5 9.1 2-9z"/><path d="m113.9 19.2h25.1l4.1-5.2h-19.9l.4-2h15.6l.9-4.6h-15.6c.4-1.2.7-2 1.7-2h16.8l1.1-5.3h-20.1c-3.4 0-6.5 1.2-7.4 5.6z"/><path d="m143.2 19.2 4-19.2h20c3.9 0 7.9 2 6.9 6.3l-2.6 12.9h-8.5l2.6-11.8c.3-.8-.2-1.7-1-1.9-.1 0-.2-.1-.3-.1h-9.4l-2.9 13.8z"/></g><path d="m0 9.1h31.7l-8.5 8.6c-6.2-5.5-14-7.8-22.8-8z"/></g></svg>