<svg id="Layer_1" data-name="Layer 1" xmlns="http://www.w3.org/2000/svg" viewBox="0 0 533.18 140.78"><defs><style>.cls-1{fill:#fff;}</style></defs><title>gopro (1)</title><path class="cls-1" d="M148.7,341V326.47a4.33,4.33,0,0,0-4.32-4.32H109.31a6,6,0,0,0,0,12H132.2v6.06c0,4.75-6.09,8.64-13.52,8.64H64.92c-7.44,0-13.52-3.89-13.52-8.64V305.89c0-4.75,6.09-8.64,13.52-8.64H90.77a5.49,5.49,0,0,0,0-11H63.26c-15.46,0-28.1,8.1-28.1,18V341c0,9.9,12.65,18,28.1,18H120.6C136.05,359,148.7,350.89,148.7,341Z" transform="translate(-35.16 -286.15)"/><path class="cls-1" d="M165.41,320.5v20.16c0,10.3,14.49,18.72,32.2,18.72H232.3c17.71,0,32.2-8.42,32.2-18.72V320.5c0-10.3-14.49-18.72-32.2-18.72H197.62c-17.71,0-32.2,8.42-32.2,18.72h0Zm15.58,20V320.62c0-4.75,7.1-8.64,15.77-8.64h36.4c8.67,0,15.77,3.89,15.77,8.64v19.92c0,4.75-7.1,8.64-15.77,8.64h-36.4C188.09,349.18,181,345.29,181,340.54Z" transform="translate(-35.16 -286.15)"/><path class="cls-1" d="M280.85,297.55v57.06a5.05,5.05,0,0,0,5,5h6.72a5.06,5.06,0,0,0,5-5V333.55H363c18.21,0,33.12-8.42,33.12-18.72v-10c0-10.3-14.9-18.72-33.12-18.72H285.89a5.05,5.05,0,0,0-5,5v6.36h0Zm16.8,24.6v-25.8h68c7.81,0,14.2,3.61,14.2,8v9.74c0,4.42-6.39,8-14.2,8h-68Z" transform="translate(-35.16 -286.15)"/><path class="cls-1" d="M410.21,320.5v33.81a5.05,5.05,0,0,0,5,5h5.5a5.05,5.05,0,0,0,5-5V320.62c0-4.75,7.1-8.64,15.77-8.64H453.1a5.1,5.1,0,1,0,0-10.2H442.42C424.7,301.78,410.21,310.2,410.21,320.5Z" transform="translate(-35.16 -286.15)"/><path class="cls-1" d="M469.25,320.5v20.16c0,10.3,14.49,18.72,32.2,18.72h34.68c17.71,0,32.2-8.42,32.2-18.72V320.5c0-10.3-14.49-18.72-32.2-18.72H501.46c-17.71,0-32.2,8.42-32.2,18.72h0Zm15.58,20V320.62c0-4.75,7.1-8.64,15.77-8.64H537c8.67,0,15.77,3.89,15.77,8.64v19.92c0,4.75-7.1,8.64-15.77,8.64H500.6C491.93,349.18,484.83,345.29,484.83,340.54Z" transform="translate(-35.16 -286.15)"/><rect class="cls-1" x="226.48" y="92.78" width="65.4" height="48"/><rect class="cls-1" x="307.12" y="92.78" width="65.4" height="48"/><rect class="cls-1" x="386.32" y="92.78" width="65.4" height="48"/><rect class="cls-1" x="466.96" y="92.78" width="65.4" height="48"/></svg>