<?xml version="1.0" encoding="utf-8"?>
<!-- Generator: Adobe Illustrator 23.0.1, SVG Export Plug-In . SVG Version: 6.00 Build 0)  -->
<svg version="1.1" id="Layer_1" xmlns="http://www.w3.org/2000/svg" xmlns:xlink="http://www.w3.org/1999/xlink" x="0px" y="0px"
	 viewBox="0 0 533.2 140.8" style="enable-background:new 0 0 533.2 140.8;" xml:space="preserve">
<style type="text/css">
	.st0{fill:#666666;}
</style>
<title>gopro (1)</title>
<path class="st0" d="M113.5,54.9V40.3c0-2.4-1.9-4.3-4.3-4.3H74.1c-3.3,0-6,2.7-6,6s2.7,6,6,6H97v6.1c0,4.8-6.1,8.6-13.5,8.6H29.8
	c-7.4,0-13.5-3.9-13.5-8.6V19.7c0-4.8,6.1-8.6,13.5-8.6h25.8c3,0,5.5-2.5,5.5-5.5s-2.5-5.5-5.5-5.5H28.1C12.6,0.1,0,8.2,0,18.1v36.8
	c0,9.9,12.7,18,28.1,18h57.3C100.9,72.9,113.5,64.7,113.5,54.9z"/>
<path class="st0" d="M130.2,34.4v20.2c0,10.3,14.5,18.7,32.2,18.7h34.7c17.7,0,32.2-8.4,32.2-18.7V34.4c0-10.3-14.5-18.7-32.2-18.7
	h-34.7C144.8,15.6,130.3,24.1,130.2,34.4L130.2,34.4L130.2,34.4z M145.8,54.4V34.5c0-4.8,7.1-8.6,15.8-8.6H198
	c8.7,0,15.8,3.9,15.8,8.6v19.9c0,4.8-7.1,8.6-15.8,8.6h-36.4C152.9,63,145.8,59.1,145.8,54.4L145.8,54.4z"/>
<path class="st0" d="M245.7,11.4v57.1c0,2.8,2.2,5,5,5h6.7c2.7,0,5-2.3,5-5V47.4h65.4C346,47.4,361,39,361,28.7v-10
	C361,8.4,346.1,0,327.8,0h-77.1c-2.8,0-5,2.2-5,5L245.7,11.4L245.7,11.4L245.7,11.4z M262.5,36V10.2h68c7.8,0,14.2,3.6,14.2,8v9.7
	c0,4.4-6.4,8-14.2,8L262.5,36L262.5,36z"/>
<path class="st0" d="M375,34.4v33.8c0,2.8,2.2,5,5,5h5.5c2.8,0,5-2.2,5-5V34.5c0-4.8,7.1-8.6,15.8-8.6h11.6c2.8,0,5.1-2.3,5.1-5.1
	s-2.3-5.1-5.1-5.1h-10.7C389.5,15.6,375,24.1,375,34.4z"/>
<path class="st0" d="M434.1,34.4v20.2c0,10.3,14.5,18.7,32.2,18.7H501c17.7,0,32.2-8.4,32.2-18.7V34.4c0-10.3-14.5-18.7-32.2-18.7
	h-34.7C448.6,15.6,434.1,24.1,434.1,34.4L434.1,34.4L434.1,34.4z M449.7,54.4V34.5c0-4.8,7.1-8.6,15.8-8.6h36.4
	c8.7,0,15.8,3.9,15.8,8.6v19.9c0,4.8-7.1,8.6-15.8,8.6h-36.4C456.8,63,449.7,59.1,449.7,54.4L449.7,54.4z"/>
<rect x="226.5" y="92.8" class="st0" width="65.4" height="48"/>
<rect x="307.1" y="92.8" class="st0" width="65.4" height="48"/>
<rect x="386.3" y="92.8" class="st0" width="65.4" height="48"/>
<rect x="467" y="92.8" class="st0" width="65.4" height="48"/>
</svg>
