<?xml version="1.0" encoding="utf-8"?>
<!-- Generator: Adobe Illustrator 23.0.1, SVG Export Plug-In . SVG Version: 6.00 Build 0)  -->
<svg version="1.1" id="Page_1" xmlns="http://www.w3.org/2000/svg" xmlns:xlink="http://www.w3.org/1999/xlink" x="0px" y="0px"
	 viewBox="0 0 127.1 65.8" style="enable-background:new 0 0 127.1 65.8;" xml:space="preserve">
<style type="text/css">
	.st0{fill:#666666;}
</style>
<title>Legendary_Pictures</title>
<g id="_ÎÓÈ_1-2">
	<path class="st0" d="M65.5,0.1v21.2h8.2v-2h-6.2V2.5l0.2,0.1l0.5,0.2l0.5,0.2l0.5,0.2l0.5,0.2l0.5,0.3l0.5,0.3l0.5,0.3l0.5,0.3
		l0.5,0.3l0.5,0.4l0.5,0.4L73.6,6L74,6.4l0.4,0.4l0.3,0.4L75,7.6l0.2,0.4l0.2,0.4l0.2,0.4l0.1,0.4l0.1,0.4v0.4h-6.2v2h6.2v11.2h2
		V12.2l0.5,0.1l0.8,0.2l0.7,0.2l0.7,0.2l0.6,0.3l0.6,0.3l0.5,0.3l0.5,0.3l0.4,0.4l0.4,0.4l0.4,0.4l0.3,0.4l0.3,0.4l0.3,0.4l0.3,0.4
		l0.2,0.4l0.2,0.4l0.2,0.4l0.2,0.4l0.2,0.4l0.1,0.4l0,0H80v2h8.8c-0.6-5.8-5.1-10.4-10.9-11.2C77.8,3,65.5-0.8,65.5,0.1L65.5,0.1z
		 M50.2,10.2h13.1v2H50.2v5h-2v-5l-0.5,0.1l-0.8,0.2l-0.7,0.2L45.5,13l-0.6,0.3l-0.6,0.3l-0.5,0.3l-0.5,0.3l-0.5,0.4L42.5,15
		l-0.4,0.4l-0.3,0.4l-0.3,0.4l-0.3,0.4L40.9,17l-0.2,0.4l-0.2,0.4l-0.2,0.4L40,18.6L39.9,19l-0.1,0.4l0,0h18.8v-5.2h2v7.2H37.2
		c0.6-5.8,5.1-10.4,10.9-11.2C48.2,3,60.6-0.8,60.6,0.1v8.4h-2V2.5l-0.2,0.1L58,2.7l-0.5,0.2L57,3.1l-0.5,0.2L56,3.6l-0.5,0.3
		l-0.5,0.3l-0.5,0.3l-0.5,0.3l-0.5,0.4l-0.5,0.4L52.5,6L52,6.4l-0.4,0.4l-0.3,0.4L51,7.6l-0.2,0.4l-0.2,0.4l-0.2,0.4l-0.1,0.4
		l-0.1,0.4L50.2,10.2L50.2,10.2L50.2,10.2z M50.2,23.5v11.2h6.2v2h-6.2v0.4l0.1,0.4l0.1,0.4l0.2,0.4l0.2,0.4l0.3,0.4l0.3,0.4
		l0.3,0.4l0.4,0.4l0.5,0.4l0.4,0.4l0.5,0.4l0.5,0.4l0.5,0.3l0.5,0.3l0.5,0.3l0.5,0.3l0.5,0.3l0.5,0.2l0.5,0.2l0.5,0.2l0.5,0.2
		l0.2,0.1V27.6h-6.2v-2h8.2v21.2c0,0.9-12.3-2.9-12.4-10.1c-5.8-0.7-10.3-5.4-10.9-11.2H46v2h-6.3l0,0l0.2,0.4l0.1,0.4l0.2,0.4
		l0.2,0.4l0.2,0.4l0.3,0.4l0.3,0.4l0.3,0.4l0.3,0.4l0.3,0.4l0.4,0.4l0.4,0.4l0.5,0.4l0.5,0.3l0.5,0.3l0.6,0.3l0.6,0.3l0.7,0.2
		l0.7,0.2l0.8,0.2l0.5,0.1V23.5H50.2L50.2,23.5z M62.8,34.8h13.1v-5h2v4.9l0.5-0.1l0.8-0.2l0.7-0.2l0.7-0.2l0.6-0.3l0.6-0.3l0.5-0.3
		l0.5-0.3l0.4-0.4l0.4-0.4l0.4-0.4l0.3-0.4l0.3-0.4l0.3-0.4l0.3-0.4l0.2-0.4l0.2-0.4l0.2-0.4l0.2-0.4l0.2-0.4l0.1-0.4l0,0H67.5v5.2
		h-2v-7.2h23.3c-0.6,5.8-5.1,10.4-10.9,11.2c-0.1,7.2-12.4,11-12.4,10.1v-8.4h2v6.1l0.2-0.1l0.5-0.2l0.5-0.2l0.5-0.2l0.5-0.2
		l0.5-0.3l0.5-0.3l0.5-0.3l0.5-0.3l0.5-0.3l0.5-0.4l0.5-0.4l0.5-0.4l0.4-0.4l0.4-0.4l0.3-0.4l0.3-0.4l0.2-0.4l0.2-0.4l0.2-0.4
		l0.1-0.4l0.1-0.4v-0.4H62.8V34.8L62.8,34.8L62.8,34.8z"/>
	<path class="st0" d="M3.2,63.8h7.4c0.3,0,0.6-0.2,0.6-0.5h0.3v2.5h-0.3c0-0.1-0.1-0.3-0.3-0.4c-0.1-0.1-0.3-0.1-0.4-0.1H0v-0.2
		c0.2,0,0.3-0.1,0.4-0.2c0.1-0.1,0.1-0.2,0.1-0.3v-8.3c0-0.1,0-0.2-0.1-0.3C0.3,56,0.2,55.9,0,55.9v-0.2h3.8v0.2
		c-0.2,0-0.3,0.1-0.4,0.2c-0.1,0.1-0.1,0.2-0.1,0.3L3.2,63.8L3.2,63.8L3.2,63.8z M16,61.1v2.7h7.8c0.1,0,0.3,0,0.4-0.1
		c0.1-0.1,0.2-0.2,0.2-0.4h0.3v2.5h-0.3c0-0.1-0.1-0.3-0.2-0.4c-0.1-0.1-0.3-0.1-0.4-0.1h-11v-0.2c0.2,0,0.3-0.1,0.5-0.2
		c0.1-0.1,0.1-0.2,0.1-0.3v-8.3c0-0.1,0-0.2-0.1-0.3c-0.1-0.1-0.3-0.2-0.4-0.2v-0.2h10.8c0.1,0,0.3,0,0.4-0.1
		c0.1-0.1,0.2-0.2,0.2-0.4h0.3v2.5h-0.3c0-0.1-0.1-0.3-0.2-0.4c-0.1-0.1-0.3-0.1-0.4-0.1H16v2.3h4.9c0.1,0,0.3,0,0.4-0.1
		c0.1-0.1,0.2-0.2,0.2-0.4h0.3v2.5h-0.3c0-0.1-0.1-0.3-0.2-0.3c-0.1-0.1-0.3-0.1-0.4-0.1L16,61.1L16,61.1z M37.3,61.9h-3
		c-0.3,0-0.6,0.2-0.6,0.5h-0.2v-2.3h0.3c0.1,0.3,0.3,0.5,0.6,0.5h5.7v0.2c-0.2,0-0.3,0.1-0.5,0.2c-0.1,0.1-0.1,0.2-0.1,0.3v2
		c0,0.1,0,0.2,0.1,0.3c0.1,0.1,0.3,0.2,0.5,0.2V64c-2.1,1-4.4,1.5-6.7,1.6c-1.7,0.1-3.3-0.3-4.8-1.1c-1.4-0.8-2.3-2.3-2.3-3.9
		c0-1.5,0.8-2.9,2.1-3.7c1.6-0.9,3.4-1.4,5.2-1.3c0.7,0,1.3,0,2,0.2c0.7,0.1,1.4,0.3,2.1,0.5c0.3,0.1,0.6,0.2,0.9,0.2
		c0.2,0,0.3-0.1,0.4-0.2l0.2,0.1l-1.4,2.3l-0.3-0.1c0-0.1,0-0.2-0.1-0.3c-0.1-0.1-0.2-0.2-0.3-0.2c-0.5-0.3-1-0.5-1.6-0.6
		c-0.7-0.1-1.3-0.2-2-0.2c-1.1,0-2.2,0.2-3.1,0.8c-0.9,0.6-1.4,1.5-1.4,2.5c0,1,0.5,1.9,1.4,2.5c1,0.6,2.1,0.9,3.3,0.9
		c0.7,0,1.3-0.1,2-0.2c0.6-0.1,1.1-0.3,1.7-0.5L37.3,61.9L37.3,61.9L37.3,61.9z M45.3,61.1v2.7h7.8c0.1,0,0.3,0,0.4-0.1
		c0.1-0.1,0.2-0.2,0.2-0.4H54v2.5h-0.3c0-0.1-0.1-0.3-0.2-0.4c-0.1-0.1-0.3-0.1-0.4-0.1h-11v-0.2c0.2,0,0.3-0.1,0.5-0.2
		c0.1-0.1,0.1-0.2,0.1-0.3v-8.3c0-0.1,0-0.2-0.1-0.3c-0.1-0.1-0.3-0.2-0.4-0.2v-0.2h10.8c0.1,0,0.3,0,0.4-0.1
		c0.1-0.1,0.2-0.2,0.2-0.4h0.3v2.5h-0.3c0-0.1-0.1-0.3-0.2-0.3c-0.1-0.1-0.3-0.1-0.4-0.1h-7.5v2.3h4.9c0.1,0,0.3,0,0.4-0.1
		c0.1-0.1,0.2-0.2,0.2-0.4h0.3v2.5h-0.3c0-0.1-0.1-0.3-0.2-0.3c-0.1-0.1-0.3-0.1-0.4-0.1L45.3,61.1L45.3,61.1z M58.8,58.7v5.9
		c0,0.1,0,0.3,0.2,0.3c0.1,0.1,0.3,0.2,0.4,0.2v0.2h-3.5v-0.2c0.2,0,0.3-0.1,0.4-0.2c0.1-0.1,0.1-0.2,0.1-0.3v-8.3
		c0-0.1,0-0.2-0.1-0.3c-0.1-0.1-0.3-0.2-0.4-0.2v-0.2H60v0.2c-0.2,0-0.4,0.1-0.4,0.3c0,0.2,0.1,0.3,0.2,0.4l6.7,5.6v-5.8
		c0-0.1,0-0.2-0.1-0.3c-0.1-0.1-0.3-0.2-0.4-0.2v-0.2h3.6v0.2c-0.2,0-0.3,0.1-0.4,0.2C69,56.2,69,56.3,69,56.4v8.2
		c0,0.1,0,0.2,0.1,0.3c0.1,0.1,0.3,0.2,0.4,0.2v0.2h-3.8v-0.2c0.2,0,0.3-0.1,0.4-0.3c-0.1-0.2-0.2-0.4-0.4-0.5L58.8,58.7L58.8,58.7
		L58.8,58.7z M72.2,64.7v-8.2c0-0.1,0-0.2-0.1-0.3c-0.1-0.1-0.3-0.2-0.4-0.2v-0.2h6.7c1.1,0,2.3,0.1,3.4,0.4c1.1,0.3,1.9,1,2.5,2
		c0.4,0.8,0.7,1.6,0.7,2.5c0.1,1.5-0.7,3-1.9,3.8c-0.6,0.4-1.2,0.7-1.9,0.8c-0.9,0.2-1.8,0.3-2.8,0.2h-6.7v-0.3
		c0.2,0,0.3-0.1,0.4-0.2C72.2,64.9,72.3,64.8,72.2,64.7L72.2,64.7L72.2,64.7z M74.9,63.8h3.3c0.8,0,1.6-0.1,2.4-0.3
		c1.1-0.5,1.8-1.7,1.7-2.9c0.1-0.9-0.3-1.8-0.9-2.4c-0.4-0.3-0.8-0.5-1.2-0.7c-0.6-0.1-1.3-0.2-1.9-0.2h-3.3L74.9,63.8L74.9,63.8
		L74.9,63.8z M94.9,62.9h-5.4l-0.8,1.4c-0.1,0.1-0.2,0.3-0.2,0.4c0.1,0.3,0.3,0.5,0.6,0.4v0.2h-4v-0.2c0.2,0,0.4-0.1,0.5-0.2
		c0.2-0.2,0.3-0.3,0.5-0.6l4.4-7.5c0.1-0.2,0.2-0.4,0.2-0.6c0-0.3-0.3-0.5-0.5-0.5v-0.2h4.3v0.2c-0.3,0-0.5,0.2-0.5,0.4
		c0,0.2,0.1,0.3,0.2,0.5l4.6,7.5c0.1,0.2,0.3,0.5,0.5,0.7c0.2,0.1,0.4,0.2,0.6,0.2v0.2h-4.4v-0.2c0.4-0.1,0.6-0.2,0.6-0.4
		c0-0.2-0.1-0.3-0.2-0.4L94.9,62.9L94.9,62.9L94.9,62.9z M94.1,61.6l-2-3.5l-2,3.5H94.1L94.1,61.6z M103.9,61.4v3.2
		c0,0.1,0,0.2,0.1,0.3c0.1,0.1,0.3,0.2,0.4,0.2v0.2h-3.8v-0.2c0.2,0,0.3-0.1,0.4-0.2c0.1-0.1,0.1-0.2,0.1-0.3v-8.2
		c0-0.1,0-0.2-0.1-0.3c-0.1-0.1-0.3-0.2-0.4-0.2v-0.2h7.6c0.7,0,1.5,0,2.2,0.1c0.5,0.1,1,0.2,1.4,0.5c0.4,0.2,0.8,0.6,1,1
		c0.2,0.4,0.3,0.9,0.3,1.3c0,1.6-1.1,2.5-3.3,2.8l2.4,2.7c0.3,0.3,0.6,0.6,0.9,0.9c0.2,0.1,0.5,0.2,0.7,0.2v0.2h-4.4v-0.2
		c0.3,0,0.4-0.1,0.4-0.3c-0.1-0.2-0.2-0.4-0.4-0.6l-2.4-2.9L103.9,61.4L103.9,61.4z M103.9,59.8h4.1c0.4,0,0.8,0,1.3,0
		c0.2,0,0.5-0.1,0.7-0.2c0.6-0.3,0.8-1,0.6-1.5c-0.1-0.3-0.3-0.5-0.6-0.6c-0.2-0.1-0.4-0.2-0.7-0.2c-0.2,0-0.7,0-1.3,0h-4
		L103.9,59.8L103.9,59.8L103.9,59.8z M121.7,61.3v3.3c0,0.1,0,0.3,0.1,0.3c0.1,0.1,0.3,0.2,0.4,0.2v0.2h-3.8v-0.2
		c0.2,0,0.3-0.1,0.5-0.2c0.1-0.1,0.1-0.2,0.1-0.3v-3.3l-3.9-4.4c-0.2-0.3-0.5-0.5-0.8-0.8c-0.2-0.1-0.4-0.2-0.7-0.2v-0.2h4.8v0.2
		c-0.4,0-0.6,0.2-0.6,0.4c0.1,0.2,0.2,0.4,0.4,0.6l2.2,2.6l2.2-2.6c0.2-0.2,0.3-0.4,0.4-0.6c0-0.1,0-0.2-0.1-0.3
		c-0.1-0.1-0.3-0.1-0.4-0.2v-0.2h4.7v0.2c-0.2,0-0.5,0.1-0.7,0.2c-0.3,0.2-0.6,0.5-0.8,0.8L121.7,61.3L121.7,61.3L121.7,61.3z"/>
</g>
</svg>
