<?xml version="1.0" encoding="utf-8"?>
<!-- Generator: Adobe Illustrator 23.0.1, SVG Export Plug-In . SVG Version: 6.00 Build 0)  -->
<svg version="1.1" id="圖層_1" xmlns="http://www.w3.org/2000/svg" xmlns:xlink="http://www.w3.org/1999/xlink" x="0px" y="0px"
	 viewBox="0 0 544.2 197.8" style="enable-background:new 0 0 544.2 197.8;" xml:space="preserve">
<style type="text/css">
	.st0{fill:#666666;}
</style>
<title>oakley_logo</title>
<path class="st0" d="M58.5,190.1v0.5c0,5.2-7.9,7.2-29.7,7.2c-17.4,0-26.5-1.7-28.4-5.4c-0.4-1-0.5-2.1-0.5-3.2v-33.8
	c0-4.4,1.9-6.2,7.4-7.4c4.7-1.1,12.5-1.7,21.5-1.7c7.2-0.1,14.4,0.4,21.5,1.6c6.1,1.2,8,2.9,8,7.1L58.5,190.1 M22.6,188.8v0.8
	c0,2.9,2.5,3.5,6.2,3.5c4.6,0,6.9-0.5,6.9-3.1v-36.2c0-2.2-2.8-2.7-6.8-2.7c-4.2,0-6.4,0.5-6.4,2.9L22.6,188.8L22.6,188.8z"/>
<path class="st0" d="M133.8,196.9l-4.1-12.5h-15.4l-3.5,12.5H93.2l18.1-50.1h28.6l19.7,50.1H133.8 M128.1,178.6l-6.8-19.8l-5.9,19.8
	H128.1z"/>
<polygon class="st0" points="222,146.8 222,167.2 240.9,146.8 262.1,146.8 242.9,167.5 260.9,196.9 234.8,196.9 222,174.9 
	222,196.9 197.5,196.9 197.5,146.8 "/>
<polygon class="st0" points="323.7,146.8 323.7,190.3 347.9,190.3 347.9,196.9 299.2,196.9 299.2,146.8 "/>
<polygon class="st0" points="432.3,153.1 408.8,153.1 408.8,168.6 426.9,168.6 427,174.5 409,174.5 409,190.6 432.2,190.6 
	432.2,196.9 384.3,196.9 384.3,146.8 432.3,146.8 "/>
<polygon class="st0" points="506.6,196.9 482,196.9 482,178.3 460.6,146.8 486.8,146.8 497.6,165.5 508.6,146.8 527.7,146.8 
	506.6,178.3 "/>
<path class="st0" d="M263.3,0C166,0,85.2,26.7,85.2,61.6s80.8,61.6,178.1,61.6s178.1-26.7,178.1-61.6S360.5,0,263.3,0 M263.7,110
	c-57.1,0-108.5-20.8-108.5-48.9s51.4-48.9,108.5-48.9S372.2,33,372.2,61.1S320.8,110,263.7,110z"/>
<path class="st0" d="M544.2,150.7c0,2-2.3,3.7-5.2,3.7s-5.2-1.6-5.2-3.7s2.3-3.6,5.3-3.6S544.2,148.7,544.2,150.7z M535,150.7
	c0,1.6,1.7,2.9,4,2.9s3.9-1.3,3.9-2.9s-1.7-2.9-4-2.9S535,149.1,535,150.7z M538.2,152.6H537V149c0.5,0,1.1-0.1,2-0.1
	c0.6-0.1,1.2,0,1.8,0.3c0.3,0.1,0.5,0.4,0.5,0.8c-0.1,0.5-0.6,0.9-1.1,0.9l0,0c0.5,0.1,0.8,0.4,0.9,0.9c0.1,0.3,0.2,0.6,0.4,0.9
	h-1.2c-0.2-0.3-0.3-0.6-0.4-0.9c-0.2-0.4-0.6-0.7-1.1-0.6h-0.6L538.2,152.6L538.2,152.6z M538.2,150.6h0.6c0.7,0,1.2-0.2,1.2-0.5
	s-0.3-0.6-1.1-0.6c-0.2,0-0.4,0-0.7,0L538.2,150.6L538.2,150.6z"/>
<path class="st0" d="M420.7,110.8c0,2-2.3,3.7-5.2,3.7s-5.2-1.6-5.2-3.7s2.3-3.6,5.3-3.6S420.7,108.8,420.7,110.8z M411.5,110.8
	c0,1.6,1.7,2.9,4,2.9s3.9-1.3,3.9-2.9s-1.7-2.9-4-2.9S411.5,109.2,411.5,110.8z M414.7,112.7h-1.2V109c0.5,0,1.1-0.1,2-0.1
	c0.6-0.1,1.2,0,1.8,0.3c0.3,0.1,0.5,0.4,0.5,0.8c-0.1,0.5-0.6,0.9-1.1,0.9l0,0c0.5,0.1,0.8,0.4,0.9,0.9c0.1,0.3,0.2,0.6,0.4,0.9
	h-1.2c-0.2-0.3-0.3-0.6-0.4-0.9c-0.2-0.4-0.6-0.7-1.1-0.6h-0.6L414.7,112.7L414.7,112.7z M414.7,110.7h0.6c0.6,0,1.2-0.2,1.2-0.5
	s-0.3-0.6-1.1-0.6c-0.2,0-0.4,0-0.7,0L414.7,110.7L414.7,110.7z"/>
</svg>
