<?xml version="1.0" encoding="utf-8"?>
<!-- Generator: Adobe Illustrator 23.0.1, SVG Export Plug-In . SVG Version: 6.00 Build 0)  -->
<svg version="1.1" id="Layer_1" xmlns="http://www.w3.org/2000/svg" xmlns:xlink="http://www.w3.org/1999/xlink" x="0px" y="0px"
	 viewBox="0 0 218 47.6" style="enable-background:new 0 0 218 47.6;" xml:space="preserve">
<style type="text/css">
	.st0{fill:#666666;}
</style>
<title>Qualcomm_Ventures_logo_white</title>
<path class="st0" d="M88.8,29.2c0.1,1,0.9,1.8,1.9,1.9H104l-3-4.8h-7.7V8h-4.6V29.2z"/>
<path class="st0" d="M29.1,29.5V23l-5.6,1.6v8c-6.8,1.8-13.9-2.2-15.7-9.1S10,9.6,16.9,7.8s13.9,2.2,15.7,9.1
	C33.8,21.4,32.5,26.2,29.1,29.5 M40.1,20.1C40.2,9,31.2,0,20.1,0S0,8.9,0,20s8.9,20.1,20,20.1c1.2,0,2.4-0.1,3.5-0.3v7.8h5.6V38
	C35.9,34.6,40.1,27.7,40.1,20.1"/>
<path class="st0" d="M58.6,31.1H45.6c-1-0.1-1.9-0.9-2-1.9V8h4.5v18.4H56V8h4.5v21.2C60.4,30.2,59.6,31,58.6,31.1"/>
<path class="st0" d="M119.6,8.9c-5.9-3.4-13.4-1.4-16.8,4.4c-3.4,5.9-1.4,13.4,4.4,16.8c3.7,2.2,8.3,2.2,12.1,0.2l-2.2-4
	c-1.1,0.6-2.4,0.9-3.7,0.9c-4.3,0-7.7-3.5-7.7-7.8s3.5-7.7,7.8-7.7c1.4,0,2.7,0.4,3.9,1.1L119.6,8.9z"/>
<path class="st0" d="M130.1,27.3c-4.3,0-7.7-3.5-7.7-7.7s3.5-7.7,7.7-7.7c4.3,0,7.7,3.5,7.7,7.7c0,0,0,0,0,0l0,0
	C137.9,23.8,134.5,27.3,130.1,27.3C130.2,27.3,130.2,27.3,130.1,27.3L130.1,27.3 M130.1,7.3c-6.8,0-12.3,5.5-12.3,12.3
	c0,6.8,5.5,12.3,12.3,12.3c6.8,0,12.3-5.5,12.3-12.3C142.4,12.8,136.9,7.3,130.1,7.3C130.1,7.3,130.1,7.3,130.1,7.3"/>
<path class="st0" d="M71,22.2l3.7-8.3l3.7,8.3H71z M76.9,8h-4.5L62.3,31h4.8l2.4-5H80l0.2,0.5l2,4.6H87L76.9,8z"/>
<path class="st0" d="M215.5,28.3l-8.4-19.2c-1-1.4-2.9-1.8-4.3-0.8c-0.3,0.2-0.6,0.5-0.8,0.8l-6.1,14.1l-6.1-14.1
	c-1-1.4-2.9-1.8-4.3-0.8c-0.3,0.2-0.6,0.5-0.8,0.8l-6.1,14.1l-6.1-14.1c-1-1.4-2.9-1.8-4.3-0.8c-0.3,0.2-0.6,0.5-0.8,0.8l-6.1,14.1
	l-6.1-14.1c-1-1.4-2.9-1.8-4.3-0.8c-0.3,0.2-0.6,0.5-0.8,0.8l-8.3,19.2c-0.4,1.3,0.3,2.6,1.6,3.1c1,0.3,2.1,0,2.7-0.9l6.5-15.3
	l6.6,15.3c0.8,1.2,2.4,1.5,3.6,0.7c0.3-0.2,0.5-0.4,0.7-0.7l6.5-15.3l6.5,15.3c0.4,0.7,1.1,1.1,1.9,1.1h0.5c0.8,0,1.5-0.5,1.9-1.1
	l6.5-15.3l6.5,15.3c0.8,1.2,2.4,1.5,3.6,0.7c0.3-0.2,0.5-0.4,0.7-0.7l6.6-15.3l6.5,15.3c0.7,1.1,2.2,1.5,3.3,0.8
	C215.4,30.6,215.9,29.4,215.5,28.3"/>
<path class="st0" d="M214.7,10.7v-1h0.6c0.3,0,0.7,0.1,0.7,0.5s-0.4,0.5-0.8,0.5L214.7,10.7L214.7,10.7L214.7,10.7z M216.5,10.2
	c0-0.5-0.3-0.9-0.8-0.9c-0.1,0-0.2,0-0.3,0h-1.2v3.1h0.5v-1.3h0.5l0.8,1.3h0.5l-0.9-1.3C216.1,11.1,216.5,10.8,216.5,10.2
	C216.5,10.3,216.5,10.3,216.5,10.2L216.5,10.2 M215.2,13.2c-1.2,0-2.2-1-2.2-2.2c0,0,0-0.1,0-0.1c0-1.2,1-2.1,2.3-2.1s2.1,1,2.1,2.3
	c0,1.1-0.9,2.1-2.1,2.1L215.2,13.2 M215.2,8.2c-1.5,0-2.6,1.3-2.6,2.7c0,1.5,1.3,2.6,2.7,2.6c1.5,0,2.6-1.2,2.6-2.7
	C218,9.4,216.8,8.2,215.2,8.2C215.3,8.2,215.3,8.2,215.2,8.2L215.2,8.2"/>
</svg>
