<?xml version="1.0" encoding="utf-8"?>
<!-- Generator: Adobe Illustrator 23.0.1, SVG Export Plug-In . SVG Version: 6.00 Build 0)  -->
<svg version="1.1" id="Layer_1" xmlns="http://www.w3.org/2000/svg" xmlns:xlink="http://www.w3.org/1999/xlink" x="0px" y="0px"
	 viewBox="0 0 421.4 238.4" style="enable-background:new 0 0 421.4 238.4;" xml:space="preserve">
<style type="text/css">
	.st0{fill:#666666;}
</style>
<title>red_bull_white</title>
<path class="st0" d="M410.7,148.3c0.7,0,3.9,0.1,3.9,3.4c0,1.5-1.2,2.7-2.6,2.9v-0.2c0.7,0.2,1.2,0.7,1.4,1.4l2.1,4.9h-1.8l-2.1-4.6
	c-0.2-0.7-0.8-1.1-1.5-1h-1.4v5.6h-1.6v-12.4H410.7L410.7,148.3z M408.7,153.7h1.5c1.8,0,2.6-1,2.6-2c0-0.7-0.2-2-2.2-2h-1.9V153.7
	L408.7,153.7L408.7,153.7z M410.9,143.9L410.9,143.9c5.8,0,10.5,4.7,10.5,10.5c0,5.8-4.7,10.5-10.5,10.5c-5.8,0-10.5-4.7-10.5-10.5
	C400.4,148.6,405.1,143.9,410.9,143.9L410.9,143.9z M410.9,163.5L410.9,163.5c5,0,9.1-4.1,9.1-9.1s-4.1-9.1-9.1-9.1
	c-5,0-9.1,4.1-9.1,9.1c0,0,0,0,0,0c0,5,3.9,9,8.9,9.1C410.8,163.5,410.8,163.5,410.9,163.5L410.9,163.5z"/>
<path class="st0" d="M178.2,70.9c-1.4-1.6-2.7-3.3-3.9-5.1c0,0-1.4-1.7-2.8,0.5c0,0-0.2,0.7-0.4,1.2c0,0-1.7,3.5-2.2,4.2
	c-0.2,0.3-0.3,0.7-0.3,1.1c0,0,1.5,0.3,3-2.6c0.2-0.4,0.6-0.8,1-1c0.3,0.1,0.5,0.3,0.6,0.6c0,0,2.1,2.3,2.6,2.7
	c1.4,1.1,1.3,4.3,1.3,5.7c0,0,2.7-0.4,1.9-5.7C178.9,72,178.7,71.4,178.2,70.9z"/>
<path class="st0" d="M230.9,69.4c0.4,0.2,0.8,0.6,1,1c1.5,2.9,3,2.6,3,2.6c0-0.4-0.1-0.8-0.3-1.1c-0.4-0.8-2.1-4.2-2.1-4.2
	c-0.2-0.5-0.4-1.2-0.4-1.2c-1.4-2.2-2.8-0.5-2.8-0.5c-1.2,1.8-2.5,3.5-3.9,5.1c-0.4,0.5-0.7,1.1-0.8,1.8c-0.8,5.3,1.9,5.7,1.9,5.7
	c-0.1-1.4-0.2-4.6,1.3-5.7c0.5-0.4,2.6-2.7,2.6-2.7C230.5,69.7,230.7,69.5,230.9,69.4z"/>
<path class="st0" d="M233.8,88.4c-2.8-1.7-3.2,0-3.2,0c-0.5,3,1.9,3.4,1.9,3.4c0.8,0.1,1.7,0.2,2.5,0.2c0.6,0,0.8-0.2,0.7-0.9
	C235.5,90,234.8,89,233.8,88.4z"/>
<path class="st0" d="M169.8,88.4c-1,0.6-1.7,1.6-1.9,2.7c-0.1,0.7,0.1,0.9,0.7,0.9c0.9,0,1.7-0.1,2.5-0.2c0,0,2.4-0.4,1.9-3.4
	C173,88.4,172.6,86.7,169.8,88.4z"/>
<path class="st0" d="M147.4,44c-0.5,0.7-0.6,1.6-0.2,2.4c0,0,2.7,3.2,3,9.8c0,0,2.6-7.2-0.9-12.1C149.3,44.1,148.4,42.4,147.4,44z"
	/>
<path class="st0" d="M365.5,103.9c-0.1-0.3-0.2-0.5-0.3-0.8c-0.1-0.4-0.1-0.7-0.1-1.1c0-2.1-1-4.1-2.7-5.3c-1-0.4-1.8-1.2-2.2-2.1
	c-0.3-1-1.1-1.8-2-2.3c-1.2-0.8-2.5-1.5-3.8-2.1c-1.2-0.5-2.9-0.9-3.8,0c-0.4,0.4-1.1,1-1.7,1.5s-1.4,1.2-1.4,1.2
	c-1.1-0.9-1.8-2.2-2-3.6c-0.2-0.7-0.4-1.6-0.7-2.5c-1.3-3.6-4.3-2.6-6.2-2.4l0,0h-0.2c0,0-1,0-1.1,0.1s-0.3-0.2-0.3-0.2l-0.6-0.2
	c0,0-3.1-1.8-3.2-1.9s0-0.1,0-0.2c0-0.5,0.2-1,0.5-1.4c1.4-2.2,2.4-6.5,2.6-10.1c0.8,0.1,1.5,0.2,2.3,0.2c7.2,0.4,11.5-1.4,14-3.8
	c0.2-0.2,0.3-0.3,0.5-0.5c1.2-1.2,2.1-2.7,2.6-4.3c0.7-1.6,1.1-3.3,1.2-5c0-6.3-3.4-12.1-8.9-15.2c-1.2-0.6-2.3-1.3-3.2-2.3
	c0.1-0.1,0.3-0.1,0.5-0.1c6.2,0,9.4-2.4,11-4.5c1.5-2.1,2.3-4.6,2.2-7.1c0-1.4-0.2-2.8-0.6-4.1c-1.8-2.9-3.4-2.1-4.4-0.6
	c-0.6,0.9-5.1,4.1-10.6,4.6c-2.9,0.1-5.6,1.6-7.3,3.9c-1.2,1.7-1.8,3.8-1.8,5.8c0,0.7,0.1,1.4,0.2,2.1c0.6,2.5,3.2,4.7,6.8,7.5
	l1.7,1.4l0.4,0.3c3,2.6,4.6,5.5,4.6,8c0,0.3,0,0.6-0.1,0.9c-0.1,0.5-0.3,1.1-0.6,1.5c-1.3,2.2-5.1,3.7-10.5,1.8
	c-3.8-1.7-7.3-4-10.3-6.9c-3.5-3.5-8.1-4.3-12.6-4.7c-3.9-0.3-6.3-1.2-8-3.1c-5-5.6-9.8-6.4-14.3-6.7c-1.7-0.1-1.8-0.2-2-0.6
	c-2.2-3.2-5.4-5.5-9-6.7c-1-0.3-1.9-0.6-2.9-0.8l-1.6-0.4l-0.4-0.1c-0.8-0.2-1.5-0.5-2.3-0.8c-2.6-1.1-5-2.5-7.3-4.1l-0.2-0.1l0,0
	l-0.2-0.1l0,0l-0.2-0.1l0,0l-0.2-0.1l0,0l-0.2-0.1l0,0c-0.3-0.2-0.6-0.3-1-0.5l0,0l-0.2-0.1l0,0l-0.2-0.1l0,0l-0.2-0.1l-0.2-0.1l0,0
	l-0.2-0.1l0,0l-0.2-0.1l0,0l-0.2,0l0,0h-0.2l0,0h-0.2l0,0h-0.2l0,0h-0.2c-0.4-0.1-0.8-0.1-1.2-0.2l0,0L260,24h-2.3
	c-1.7,0.1-3.3,0.5-4.9,1c-11-14.7-27.9-23.8-46.3-24.9h-0.9l0,0h-0.9h-1h-1.9h-1h-1l0,0c-18.9,0.9-36.4,10.2-47.6,25.5l-0.2-0.1
	l-0.1-0.1c-0.5-0.2-1.1-0.4-1.7-0.6l0,0l-0.1-0.1l-0.9-0.2l0,0H149l-0.9-0.2l0,0h-0.2l0,0h-0.2l0,0h-0.2l0,0h-0.2l0,0h-0.2l0,0h-0.2
	l0,0h-0.2l0,0h-0.2l0,0h-0.2H146h-0.4h-1.4h-0.2l0,0h-0.2l0,0h-0.2l0,0h-0.2l0,0h-0.2l0,0h-0.2l0,0h-0.2l0,0h-0.2l0,0h-0.2l0,0
	l-0.2,0l0,0l-0.2,0.1l0,0l-0.2,0.1l0,0l-0.2,0.1l0,0l-0.2,0.1l-0.2,0.1l0,0l-0.2,0.1l0,0l-0.2,0.1l0,0l-0.2,0.1l0,0l-0.2,0.1l0,0
	l-0.2,0.1l0,0l-0.9,0.1l0,0l-0.2,0.1l0,0l-0.2,0.1l0,0l-0.2,0.1l0,0l-0.2,0.1l0,0l-0.2,0.1c-5.1,3.4-7,4.1-9.5,4.9L128,31l-1.6,0.4
	c-1.6,0.3-3.1,0.8-4.6,1.4c-2.9,1.3-5.4,3.4-7.3,6.1c-0.2,0.3-0.3,0.4-2,0.6c-4.5,0.3-9.3,1.1-14.3,6.7c-1.7,1.9-4.1,2.8-8,3.1
	c-4.5,0.3-9.2,1.2-12.7,4.7c-3,2.9-6.5,5.2-10.4,6.8c-5.5,1.9-9.2,0.5-10.6-1.8c-0.1-0.2-0.2-0.4-0.3-0.7c-0.2-0.6-0.3-1.2-0.3-1.8
	c0-2.5,1.6-5.4,4.6-8l2-1.7c3.6-2.8,6.2-5,6.8-7.5c0.2-0.7,0.3-1.4,0.2-2.1c0-2.1-0.6-4.1-1.8-5.9c-1.7-2.3-4.4-3.8-7.3-3.9
	c-5.5-0.5-10-3.7-10.6-4.6c-1-1.5-2.7-2.3-4.5,0.6C45.2,25,45,26.4,45,27.8c-0.1,2.6,0.7,5.1,2.2,7.1c1.6,2,4.8,4.5,11,4.5
	c0.2,0,0.3,0.1,0.5,0.1c-0.9,1-2,1.8-3.2,2.3c-5.5,3.1-8.9,8.9-8.9,15.2c0.1,1.7,0.6,3.4,1.2,5c0.6,1.9,1.7,3.5,3.1,4.9
	c2.7,2.5,7.2,4.4,14.8,3.8l1.5-0.2c0.2,3.6,1.2,7.9,2.6,10.1c0.3,0.4,0.5,0.9,0.5,1.4c0,0.1,0,0.1,0,0.2L67.2,84l-0.5,0.3l-0.3,0.2
	l-1.1-0.1h-0.2c-2-0.2-5-1.1-6.2,2.4c-1,2.9-0.8,4.6-2.8,6.1c0,0-2.1-1.8-3-2.7s-2.6-0.5-3.8,0c-1.3,0.6-2.6,1.3-3.8,2.1
	c-0.9,0.5-1.7,1.3-2,2.3c-0.4,1-1.2,1.7-2.2,2.1c-1.7,1.2-2.7,3.2-2.7,5.3c0,0.7-0.2,1.4-0.5,2c-1.6,3.1-0.3,4.7,0.6,5.3
	c1.6,1,3.5,1.3,5.3,0.9v0.5l2.9-0.4c1.2-0.1,2.3,0,3.5,0.3l0.2,0.1c2.6,0.5,5.2-0.7,6.5-3c0.6-1.2,1.5-2.2,2.6-3
	c3.4,1.1,7.2,0.1,9.6-2.6c2.1-2.1,5.1-3.1,8.1-2.8l1.3,0.2c2.6,0.5,5.9,1.1,8.9-0.8c0.9-0.5,1.9-1,2.9-1.4c2.7-1.2,5.6-2.4,6-5
	c0.2-0.7,0.6-1.4,1-2c0.9-1.2,1.4-2.6,1.6-4.1c1.2,0.3,2.5,0.4,3.7,0.2l1.2-0.2c2-0.3,6.2-1,7.6-0.5c2.7,1,11,1.4,13.3,0.9l1.6-0.4
	c0.8,0.8,1.6,1.5,2.5,2.2c-1.4,0-2.8,0-4.2,0.2l-2.1,0.6c-1.1-0.2-2.2-0.2-3.2-0.1l-2.5,0.2l-2.8,0.3c-1.3,0.3-2.8,0.9-2.6,3.5
	c0.1,1,0.6,1.9,1.2,2.7c0.8,1,1.5,2.1,2.2,3.2l0.1,0.2c0.6,1.6,2.2,2.5,3.9,2.3c0.3,0,0.6,0,0.9,0c0.1,0.2,0.3,0.6,0.3,0.6
	c0.6,1.6,1.6,3,2.9,4.1l0.4,0.3c1.8,1.6,4.2,2,6.4,1.2l1.1-0.4c3.1-1,6.1-2.2,9-3.6l0.3-0.2c1.9-1.1,2.4-1.3,3.1-1.2l0.4,0.1
	c1.5,0.2,4.3,0.6,6.3-2.7l0.9-1.7c8.2,11.9,20.3,20.7,34.2,24.7h0.2l1.4,0.4l0.4,0.1l0.8,0.2h0.1l1.5,0.3l0.4,0.1l0.8,0.2l1,0.2
	l0.4,0.1l0.9,0.1l0.5,0.1l1.2,0.2h0.4l0.8,0.1l0.6,0.1l1.2,0.1h0.4l1,0.1h0.5h1.2h3.5h1.2h0.4l1.1-0.1h0.4l1.1-0.1l0.6-0.1l0.9-0.1
	l0.5-0.1l0.9-0.1l0.8-0.1h0.2l1.6-0.3h0.1c15.8-2.9,29.9-11.7,39.3-24.7l0.2,0.3c2,3.2,4.8,2.9,6.3,2.7l0.4-0.1
	c0.7-0.1,1.1,0.1,3.1,1.2l0.3,0.2c2.9,1.4,5.9,2.6,9,3.6l1.1,0.4c2.2,0.8,4.7,0.4,6.5-1.2l0.4-0.3c1.3-1.1,2.3-2.5,2.9-4.1
	c0,0,0.2-0.4,0.3-0.6c0.3,0,0.6,0,0.9,0c1.7,0.2,3.3-0.8,3.9-2.3l0.1-0.2c0.6-1.1,1.4-2.2,2.2-3.2c0.7-0.7,1.1-1.7,1.2-2.7
	c0.2-2.7-1.2-3.2-2.6-3.5l-2.8-0.3l-2.5-0.2c-1.1-0.1-2.2-0.1-3.3,0.1l-2.1-0.6c-1.4-0.1-2.8-0.2-4.2-0.2c0.9-0.7,1.7-1.4,2.5-2.2
	l1.6,0.4c2.3,0.5,10.7,0.1,13.3-0.9c1.3-0.5,5.5,0.2,7.5,0.5l1.2,0.2c0.3,0,0.7,0.1,1,0.1c0.9,0,1.9,0,2.8-0.3
	c0,0.7,0.2,1.4,0.5,2.1c0.3,0.7,0.7,1.3,1.1,1.9c0.4,0.6,0.8,1.3,1,2c0.4,2.6,3.2,3.8,6,5c1,0.4,2,0.9,2.9,1.4
	c3,1.8,6.3,1.2,8.9,0.8l1.3-0.2c3-0.4,6,0.7,8.1,2.8c0.3,0.3,0.6,0.6,0.9,0.8c1.4,1.2,3.1,2,5,2.2c1.3,0.1,2.6,0,3.8-0.4
	c1.1,0.8,1.9,1.8,2.6,3c0,0.1,0.1,0.2,0.2,0.3c1.3,2.1,3.8,3.2,6.3,2.8l0.2-0.1c1.1-0.3,2.3-0.4,3.5-0.3l2.9,0.4v-0.5
	c1.8,0.4,3.7,0,5.3-0.9C365.8,108.6,367,107,365.5,103.9z M45.3,102.1c0,0-1.6,4.3-1.5,5.8c0,0-3.5,0.6-4-1.1c0-0.6,0.2-1.2,0.5-1.6
	c0.4-0.8,0.7-1.7,0.8-2.6c0,0,0-4.2,2.6-3.1c0.5,0.3,1,0.7,1.3,1.2C45.4,101.1,45.5,101.7,45.3,102.1z M45.6,98.3
	c-0.5-0.4-0.7-1.1-0.3-1.7c0.2-0.3,0.4-0.4,0.7-0.5c1.1-0.6,2.2-1.4,3.2-2.3c0.6-0.5,1.4-0.7,2.2-0.6c0.6,0.1,1,0.6,1,1.2
	c0,0.2-0.1,0.5-0.3,0.6c-0.8,1.3-1.8,2.4-2.9,3.5C48.1,99.5,46.6,99.3,45.6,98.3z M188.9,90.4c-1.1-2.2-2.6-4.1-4.3-5.8
	c-1.2-1.2-1.8-0.8-1.8-0.8c-1,0.4,0,1.8,0,1.8c3.3,4.2,3.6,7.2,3.6,7.2c1.6,3.6,8,6.2,8,6.2c-8,1.8-12.9-4.9-12.9-4.9
	c-0.7-1.6-2.8,0-2.8,0c-1.8,1.8-4.3,2.7-6.8,2.5c-0.8-0.2-1.6-0.2-2.4-0.2c-1.7,0.1-3.3,0.5-4.9,1.1c-0.9,0.3-3.4,1-3.4,1
	c-0.7,0.3-1.5,0.5-2.3,0.6c-0.3-0.1-0.7-0.1-1,0.1c-0.8,0.2-1.6-0.1-2.1-0.8c-0.5-1-0.9-2.1-1-3.3c0.2-1.4,0.9-2.8,2-3.7
	c0.7-0.8,0.5-0.9,0.5-0.9c-0.6-0.8-2.5,0-2.5,0c-1.4,0.5-0.7-1.5-0.7-1.5c0.3-2,3.3-4.2,3.3-4.2c0.6-0.5,1-1.1,1.1-1.9
	c0.3-1.4,0.9-2.7,1.8-3.8c0.8-1-0.6-0.6-0.6-0.6c-1,0.3-6.4,1.1-6.4,1.1c-1.8,1.3-6.1,0-6.1,0c3.2-3.7,4-8.8,2-13.3
	c0,2.9-1.7,7.6-1.7,7.6c-1.3,4.1-3.2,4.6-3.2,4.6c-1.5,0.6-3.1,1.1-4.8,1.4c-0.6,0.2-1,0.8-0.8,1.5c0.1,0.2,0.2,0.4,0.3,0.5
	c0.6,0.6,1,1.4,1.4,2.1c1,2,2.1,4,3.3,5.9c0.7,0.7,1.1,1.7,0.9,2.8c0.1,1.7-1.4,4.8-1.4,4.8c-0.4,0.9,0.1,0.7,0.1,0.7
	c0.5-0.2,1-0.4,1.4-0.7c0.6-0.6,1.1-1.3,1.4-2.1c0.2-0.5,0.9-1.4,0.9-1.4c0.3-0.5,0.5-1.1,0.6-1.7c0.1-1.8-1.7-4.5-1.7-4.5
	c-1.2-2.1-2.3-4.3-3.1-6.5l2.6-0.2c0.7,0.5,1.2,1.1,1.7,1.8l2,4.7c0.3,0.7,0.7,1.4,1.2,1.9c0.6,0.7,1,1.7,0.9,2.7
	c0,0.8-0.1,1.7-0.5,2.4l-2.8,4.3c-1.1,2.1-3.8,1.5-3.8,1.5c-1.2-0.2-2.4,0-3.5,0.6c-1.6,1.2-10.5,4.5-10.5,4.5
	c-1.2,0.6-2.6,0.8-3.8,0.4c-1.4-0.6-2.6-1.7-3.4-3c-1.4-4.5-3.8-3.3-3.8-3.3c-1.8,0.3-2-1-2-1c-0.8-1.4-1.7-2.7-2.6-3.9
	c-0.5-0.3-0.7-0.9-0.4-1.5c0.2-0.3,0.5-0.5,0.9-0.5l5.4-0.4c2.9-0.2,6.2,6.9,6.2,6.9c0.8,1.9,3.4,1.1,3.4,1.1
	c6.9-2.4,7.7-3.3,7.7-3.3c0.1-6.6-5.1-8.5-5.1-8.5c-5.8-2.1-7.9-9.1-7.9-9.1c-0.9-1.2-1.7,0.7-1.7,0.7c-0.1,1.7,0.3,3.4,1.2,4.8
	c-4,0.3-8.1,0.1-12-0.8c-3.1-0.4-6.3-0.2-9.3,0.5c-1.8,0.4-3.7,0.1-5.2-0.9c-3.2-1.9-1.5-11.6-1.5-11.6c0.2-1.8-0.8-1.5-0.8-1.5
	c-2.4,2.2-1.9,11.5-1.9,11.5c-2.9,6.4-9.2,10.5-16.2,10.7c-1.6-0.2-3.3-0.1-4.9,0.2c-4.9,0.9-9.2,3.7-12,7.9
	c0.8,0.3,1.8-0.1,2.2-0.8c6.8-7.3,14.5-5.6,14.5-5.6c5.4,0.9,8-0.2,8-0.2c4.9-1.5,7.8-6.3,7.8-6.3h3.2c-0.8,1.3-1.5,2.6-2,4
	c-0.1,1.2-1,2.3-2.1,2.7c-1.6,0.6-5.8,2.7-5.8,2.7c-2.1,1.5-8.7,0.2-8.7,0.2c-5.9-0.9-10.1,3.6-10.1,3.6c-3,3.2-7.4,1.7-7.4,1.7
	c-2.2-0.8-5,4.2-5,4.2c-1.5,2.8-4.9,1.6-4.9,1.6c-1.1-0.3-2.3-0.4-3.5-0.2c0-1.1,0.2-2.1,0.4-3.1c0.8-2.7,2-3.1,2-3.1
	c1-0.1,2-0.7,2.5-1.6c0.6-1.4,1.8-2.4,3.3-2.8C58,96,60,91.5,60,91.5c0.7-1.3,1.2-2.7,1.7-4.1c0.9-1.2,3.5-0.5,3.5-0.5
	c0.8,0.2,1.7,0.1,2.5-0.3l4.2-2.5c2.1-1.9,0.1-4.8,0.1-4.8c-1.7-3.6-2.4-7.6-2.1-11.6c-4.2,0.7-9,1.2-13.1-0.3
	c-10.7-4.3-6.3-15.3-6.3-15.3c2-6.3,6.3-8.2,6.3-8.2c1.7-0.8,3.1-2,4.2-3.5c1.3-3-2.4-3.5-2.4-3.5c-14.3,0.2-10.7-12.7-10.7-12.7
	c3.3,4.1,11.4,5.6,11.4,5.6c6.5,0.1,7.5,4.7,7.5,4.7c2,4.7-2.3,7.8-2.3,7.8c-3.1,2.2-5.9,4.8-8.4,7.7c-4.9,7.3-0.6,11.4-0.6,11.4
	c8.3,7.8,22.2-4.3,22.2-4.3c5.5-6.5,14-5.6,14-5.6c2.9-0.2,5.6-1.3,7.8-3.2c5.6-7.5,13.3-6.6,13.3-6.6c3.5-0.4,3.8-1.5,3.8-1.5
	c3.7-6,12.3-7,12.3-7C133,32.4,138,29,138,29c7.3-5.8,17.4,1.4,17.4,1.4c1.4,1.4,2.9,2.7,4.5,3.9c3,2,5.8,4.4,8.4,7.1
	c2,2,4.7,5.3,4.7,5.3c2.3,2.1,4.3,4.6,5.8,7.4c2.1,2.7,3.1,6,3,9.3c0.2,1.7,0.6,3.4,1.1,5.1c0.3,1.1,1.3,5.6,1.3,5.6
	c2,2.7,2.2,7.6,2.2,7.6c2.6,1.9,4.5,4.5,5.6,7.6c2.1,3.2,6.5,4.9,6.5,4.9C192.8,96.4,188.9,90.4,188.9,90.4L188.9,90.4z
	 M353.5,108.3c0,0-3.4,1.1-4.9-1.6c0,0-2.9-5-5-4.2c0,0-4.3,1.4-7.4-1.7c0,0-4.2-4.6-10.1-3.6c0,0-6.7,1.3-8.7-0.2
	c0,0-4.2-2.2-5.8-2.7c-1.2-0.4-2-1.4-2.1-2.7c-0.5-1.4-1.2-2.7-2-4h3.2c0,0,2.9,4.8,7.8,6.3c0,0,2.7,1.1,8,0.2c0,0,7.7-1.8,14.5,5.6
	c0.5,0.7,1.4,1.1,2.2,0.8c-2.8-4.1-7.1-7-12-7.9c-1.6-0.3-3.3-0.4-4.9-0.2c-7-0.1-13.3-4.2-16.2-10.6c0,0,0.6-9.3-1.9-11.5
	c0,0-1-0.3-0.8,1.5c0,0,1.7,9.7-1.5,11.6c-1.6,1-3.4,1.3-5.2,0.9c-3.1-0.7-6.2-0.9-9.3-0.5c-3.9,0.9-8,1.2-12,0.8
	c0.9-1.5,1.3-3.1,1.1-4.8c0,0-0.8-1.9-1.7-0.7c0,0-2.1,7-7.9,9.1c0,0-5.2,1.9-5.1,8.5c0,0,0.8,0.9,7.7,3.3c0,0,2.6,0.8,3.4-1.1
	c0,0,3.3-7.1,6.2-6.9l5.4,0.4c0.6,0,1.1,0.5,1,1.1c0,0.4-0.2,0.7-0.5,0.9c-1,1.3-1.8,2.6-2.6,3.9c0,0-0.2,1.3-2,1
	c0,0-2.4-1.2-3.8,3.3c-0.8,1.3-1.9,2.4-3.4,3c-1.3,0.4-2.7,0.2-3.8-0.4c0,0-9-3.3-10.5-4.5c-1.1-0.6-2.3-0.8-3.5-0.6
	c0,0-2.7,0.6-3.8-1.5l-2.8-4.3c-0.4-0.7-0.6-1.6-0.5-2.4c-0.1-1,0.2-1.9,0.9-2.7c0.5-0.5,0.9-1.2,1.2-1.9l2-4.7
	c0.4-0.7,1-1.3,1.7-1.8l2.6,0.2c-0.9,2.3-1.9,4.5-3.1,6.5c0,0-1.8,2.8-1.7,4.5c0.1,0.6,0.3,1.2,0.6,1.7c0,0,0.6,1,0.9,1.4
	c0.3,0.8,0.8,1.5,1.5,2.1c0.4,0.3,0.9,0.5,1.4,0.7c0,0,0.5,0.1,0.1-0.7c0,0-1.5-3.1-1.4-4.8c-0.2-1,0.2-2,0.9-2.8
	c1.2-1.9,2.3-3.9,3.3-5.9c0.4-0.8,0.9-1.6,1.5-2.2c0.4-0.5,0.4-1.2-0.1-1.7c-0.2-0.1-0.3-0.2-0.5-0.3c-1.6-0.3-3.2-0.8-4.8-1.4
	c0,0-1.9-0.6-3.2-4.6c0,0-1.7-4.7-1.7-7.6c-2,4.4-1.2,9.6,2,13.3c0,0-4.3,1.3-6.1,0c0,0-5.4-0.8-6.4-1.1c0,0-1.4-0.3-0.6,0.6
	c0.8,1.1,1.4,2.4,1.8,3.8c0.1,0.8,0.5,1.4,1.1,1.9c0,0,3,2.1,3.3,4.2c0,0,0.6,2-0.7,1.5c0,0-1.8-0.8-2.5,0c0,0-0.2,0.1,0.5,0.9
	c1.1,1,1.8,2.3,2,3.7c-0.1,1.1-0.5,2.2-1,3.3c-0.5,0.7-1.3,1-2.1,0.8c-0.3-0.2-0.7-0.2-1-0.1c-0.8-0.1-1.6-0.3-2.3-0.6
	c0,0-2.6-0.7-3.4-1c-1.6-0.6-3.2-0.9-4.9-1.1c-0.8-0.1-1.6,0-2.4,0.2c-2.5,0.2-5-0.7-6.8-2.5c0,0-2.1-1.6-2.8,0
	c0,0-4.9,6.6-12.9,4.9c0,0,6.4-2.6,8-6.2c0,0,0.2-3,3.6-7.2c0,0,1-1.4,0-1.8c0,0-0.6-0.4-1.8,0.8c-1.8,1.7-3.2,3.7-4.3,5.8
	c0,0-3.9,5.9-9.6,3.9c0,0,4.4-1.7,6.5-4.9c1.1-3,3.1-5.7,5.6-7.6c0,0,0.2-4.9,2.2-7.6c0,0,1-4.6,1.3-5.6c0.5-1.7,0.8-3.4,1.1-5.1
	c-0.1-3.4,0.9-6.7,3-9.3c1.5-2.8,3.5-5.3,5.8-7.4c0,0,2.7-3.3,4.7-5.3c2.5-2.7,5.3-5.1,8.4-7.1c1.6-1.2,3.1-2.5,4.5-3.9
	c0,0,10.1-7.3,17.4-1.4c0,0,5,3.4,9.2,4.5c0,0,8.6,1,12.3,7c0,0,0.3,1.1,3.8,1.5c0,0,7.6-0.9,13.3,6.6c2.2,1.8,4.9,2.9,7.8,3.2
	c0,0,8.5-0.9,14,5.6c0,0,13.9,12.1,22.2,4.3c0,0,4.3-4.1-0.6-11.4c-2.5-2.9-5.3-5.4-8.4-7.7c0,0-4.3-3-2.3-7.8c0,0,1-4.6,7.5-4.7
	c0,0,8.1-1.6,11.4-5.6c0,0,3.7,12.9-10.7,12.7c0,0-3.7,0.5-2.4,3.5c1.1,1.5,2.6,2.7,4.3,3.5c0,0,4.3,1.9,6.3,8.2
	c0,0,4.4,11-6.3,15.3c-4.1,1.4-8.9,1-13.1,0.3c0.3,4-0.4,8-2.1,11.6c0,0-2,2.9,0.1,4.8l4.2,2.5c0.8,0.4,1.6,0.5,2.5,0.3
	c0,0,2.6-0.7,3.5,0.5c0.5,1.4,1.1,2.7,1.7,4.1c0,0,1.9,4.4,5.1,5.9c1.5,0.4,2.7,1.4,3.3,2.8c0.5,0.9,1.4,1.5,2.5,1.6
	c0,0,1.2,0.4,2,3.1c0.3,1,0.4,2.1,0.4,3.1C355.8,107.9,354.6,108,353.5,108.3L353.5,108.3z M354.4,98.6c-1.1-1-2.1-2.2-2.9-3.5
	c-0.4-0.4-0.4-1.1,0-1.5c0.2-0.2,0.4-0.3,0.6-0.3c0.8-0.1,1.6,0.1,2.2,0.6c1,0.9,2.1,1.6,3.2,2.3c0.6,0.1,1.1,0.8,0.9,1.4
	c-0.1,0.3-0.2,0.6-0.5,0.7C357,99.3,355.4,99.5,354.4,98.6L354.4,98.6z M363.8,106.8c-0.5,1.7-4,1.1-4,1.1c0.1-1.4-1.5-5.8-1.5-5.8
	c-0.2-0.5-0.1-1,0.3-1.4c0.4-0.5,0.8-0.9,1.4-1.2c2.7-1.1,2.6,3.1,2.6,3.1c0.1,0.9,0.3,1.8,0.8,2.6
	C363.6,105.7,363.8,106.2,363.8,106.8z"/>
<path class="st0" d="M254.3,44.1c-3.5,4.8-0.9,12.1-0.9,12.1c0.4-6.7,3-9.8,3-9.8c0.4-0.8,0.3-1.7-0.2-2.4
	C255.2,42.4,254.3,44.1,254.3,44.1z"/>
<path class="st0" d="M80,201.9h21.3c0,0-0.9-10.1-10.5-10.1S80,201.9,80,201.9L80,201.9z M91.1,179.7c28.8,0,27.6,28,27.6,28v4.4
	h-39c0,6.4,5.3,11.9,12.6,11.9s11-7,11-7l13.8,6.8c-6.4,9.6-15,13.5-24.6,13.5c-29.9,0-30.5-24.9-30.5-28S62.4,179.7,91.1,179.7
	L91.1,179.7L91.1,179.7z M155.1,221.7L155.1,221.7c-0.9,0-12,0.1-12-13.5s12.1-14.1,12.1-14.1s13.6,0.4,13.6,13.8
	S156,221.6,155.1,221.7L155.1,221.7L155.1,221.7z M168.1,145v41.1c0,0-8.3-6.4-17.8-6.4s-25.5,6.7-25.5,27.7s13.6,29,25.3,29
	c6.9,0,13.5-2.7,18.2-7.7v6.8h16.9V145L168.1,145L168.1,145z M282.1,182.5h17.2v30.4c0,0,0.6,10.2,10.2,10.2s9.5-10.2,9.5-10.2
	v-30.2h17.4v31.3c0,0,2.2,24.4-26.4,24.4s-27.9-21.5-27.9-25.3L282.1,182.5L282.1,182.5L282.1,182.5z M346.4,145h17v90.6h-17V145
	L346.4,145z M375.2,145H392v90.6h-16.8V145L375.2,145z M247.7,220.5h-16.1v-56.7h8.6c0,0,11.7-0.9,11.7,9.3s-9.3,9.3-9.3,9.3h-5.4
	v15.3h10.4c2.7,0,11.5,1.3,11.5,11.4S247.7,220.5,247.7,220.5L247.7,220.5L247.7,220.5z M262.2,188.3c5.1-4.5,7.9-10.9,7.8-17.7
	c0-11.6-8.4-22-26.3-22h-30v87h36.9c0,0,26.5-0.3,26.5-24.2C277.1,197.5,271.7,192.2,262.2,188.3L262.2,188.3L262.2,188.3z M0,146.8
	v88.9h17.9v-71.9h8.5c0,0,13.2-0.6,13.2,11.4s-11.7,11.7-11.7,11.7h-4.3v20.4l17.9,28.3h21l-25-36.3c0,0,20.6-1.8,20.6-24.2
	s-15.6-28.4-36.3-28.4H0z"/>
</svg>
