<?xml version="1.0" encoding="utf-8"?>
<!-- Generator: Adobe Illustrator 23.0.1, SVG Export Plug-In . SVG Version: 6.00 Build 0)  -->
<svg version="1.1" id="Layer_1" xmlns="http://www.w3.org/2000/svg" xmlns:xlink="http://www.w3.org/1999/xlink" x="0px" y="0px"
	 viewBox="0 0 587.5 130.9" style="enable-background:new 0 0 587.5 130.9;" xml:space="preserve">
<style type="text/css">
	.st0{fill:#666666;}
</style>
<title>SAG_Logo_horizontal_noStatue</title>
<path class="st0" d="M35,10.4c-3-5.6-8.8-9-15.1-8.9c-8.9,0-17.3,5.7-17.3,15.2c0,8.2,6.1,12,12.8,14.9l4,1.7
	c5.1,2.1,10.1,4.8,10.1,11.1c0,6.2-4.5,11.5-10.8,11.5S7.3,51.2,7.4,44.8L0,46.3c1.2,9.4,8.6,16.4,18.1,16.4
	c10.5,0,18.8-7.6,18.8-18.3c0-9.8-6.2-14.4-14.6-17.7l-4.2-1.6c-3.7-1.4-8.1-3.8-8.1-8.4c0-5.1,5.1-8.3,9.8-8.3
	c4.4,0,7.2,1.9,9.4,5.5L35,10.4L35,10.4z M87.9,5.5c-4.5-2.7-9.6-4.1-14.8-4C56.1,1.3,42.1,15,41.9,32c0,0.2,0,0.3,0,0.5
	c0,16.8,13.7,30.3,30.5,30.3c0,0,0.1,0,0.1,0c5.4,0,10.7-1.5,15.4-4.1V50c-4.3,3.9-9.9,6-15.7,6.1c-13.1,0-23-11-23-23.8
	c0-13,10-24,23.2-24c5.7,0,11.2,2,15.5,5.8V5.5L87.9,5.5z M113.9,36c8.5-1,14.1-8,14.1-16.4c0.1-5.7-2.9-11-7.7-14
	c-4.7-2.7-10.3-2.8-15.5-2.8h-8.9v58.7h7.3V36.7h3l17.3,24.8h8.9L113.9,36L113.9,36z M103.2,9.4h1.9c7.2,0,16,1.3,16,10.5
	c0,9.4-8.1,10.8-15.6,10.8h-2.3L103.2,9.4L103.2,9.4L103.2,9.4z M138.5,61.5H170v-6.7h-24.2V32.6h23.5v-6.7h-23.5V9.5H170V2.8h-31.5
	L138.5,61.5L138.5,61.5L138.5,61.5z M178.8,61.5h31.5v-6.7h-24.2V32.6h23.5v-6.7h-23.5V9.5h24.2V2.8h-31.5V61.5L178.8,61.5
	L178.8,61.5z M218.8,61.5h7.3V17.8l44.1,46.2V2.8H263v43.4L218.9,0L218.8,61.5L218.8,61.5L218.8,61.5z M343.2,46.8l6.7,14.7h7.9
	l-28-61.2l-28,61.2h7.9l6.7-14.7H343.2L343.2,46.8z M340.2,40.1h-20.9l10.4-23.7L340.2,40.1L340.2,40.1L340.2,40.1z M402.9,5.5
	c-4.5-2.7-9.6-4.1-14.8-4c-17-0.2-31,13.4-31.2,30.5c0,0.1,0,0.3,0,0.4c0.1,16.8,13.7,30.3,30.5,30.3c0,0,0.1,0,0.1,0
	c5.4,0,10.7-1.5,15.4-4.1V50c-4.3,3.9-9.9,6-15.6,6.1c-13.1,0-23-11-23-23.8c0-13,10-24,23.2-24c5.7,0,11.2,2,15.5,5.8V5.5
	L402.9,5.5z M429.1,9.5H443V2.8h-35.2v6.7h13.9v52h7.3L429.1,9.5L429.1,9.5L429.1,9.5z M473.1,1.6c-16.9,0-30.6,13.7-30.8,30.6
	c0,17,13.8,30.8,30.8,30.7c17,0,30.7-13.8,30.7-30.7C503.7,15.3,490,1.6,473.1,1.6L473.1,1.6L473.1,1.6z M473.1,56
	c-13-0.1-23.5-10.7-23.4-23.7c0,0,0,0,0,0c0-12.9,9.7-23.8,23.4-23.8s23.4,10.8,23.4,23.8C496.6,45.2,486.1,55.9,473.1,56
	C473.1,55.9,473.1,55.9,473.1,56L473.1,56z M530.2,36c8.5-1,14.1-8,14.1-16.4c0.1-5.7-2.9-11-7.7-14c-4.7-2.7-10.3-2.7-15.5-2.7
	h-8.9v58.7h7.3V36.7h3l17.3,24.8h8.9L530.2,36L530.2,36z M519.5,9.4h2c7.2,0,16,1.3,16,10.5c0,9.4-8.1,10.8-15.6,10.8h-2.3
	L519.5,9.4L519.5,9.4L519.5,9.4z M585.7,10.4c-3-5.6-8.8-9-15.1-8.9c-8.9,0-17.3,5.7-17.3,15.2c0,8.2,6.1,12,12.8,14.9l4,1.7
	c5.1,2.1,10.1,4.8,10.1,11.1c0,6.2-4.5,11.5-10.8,11.5s-11.4-4.7-11.3-11.1l-7.4,1.6c1.2,9.4,8.6,16.4,18.2,16.4
	c10.5,0,18.8-7.6,18.8-18.3c0-9.8-6.2-14.4-14.6-17.7l-4.2-1.6c-3.7-1.4-8.2-3.8-8.2-8.4c0-5.1,5.1-8.3,9.8-8.3
	c4.4,0,7.2,1.9,9.4,5.5L585.7,10.4L585.7,10.4L585.7,10.4z"/>
<path class="st0" d="M59.3,100.1v6.7h15.2c-0.3,9.6-10.1,17.4-19.2,17.4c-12.7,0-22.8-11.7-22.8-24C32,87.4,42.1,76.8,54.9,76.4
	c7.7-0.2,14.9,3.4,19.4,9.6l5.1-4.9c-10.6-13.1-29.8-15.2-43-4.6c-7.2,5.8-11.4,14.7-11.4,24c0,16.3,13.2,30.4,29.7,30.4
	s27.8-12.4,27.8-28.5v-2.3L59.3,100.1L59.3,100.1z M89.8,70.9v37.2c0,12.9,8,22.8,21.5,22.8s21.5-9.9,21.5-22.8V70.9h-7.3v34.7
	c0,9.6-2.9,18.5-14.2,18.5s-14.2-8.9-14.2-18.5V70.9H89.8z M151.2,70.9h-7.3v58.7h7.3V70.9L151.2,70.9z M170.1,70.9h-7.3v58.7H188
	V123h-17.9L170.1,70.9L170.1,70.9L170.1,70.9z M193.2,129.7h11.9c18.5,0,33.2-9.7,33.2-29.7c0-19.6-15-29-32.9-29h-12.2L193.2,129.7
	L193.2,129.7L193.2,129.7z M200.6,77.7h2.6c15,0,27.9,5.5,27.9,22.7S218.1,123,203.1,123h-2.6V77.7L200.6,77.7L200.6,77.7z"/>
<path class="st0" d="M564.6,111.5c-0.6,0.1-1.1,0.4-1.4,0.9c-0.7,0.9-1.4,1.7-2.2,2.5l-0.4,0.4c-1.4,1.6-2.9,3.2-4.5,4.7
	c0.5-1.1,0.8-2.3,0.8-3.6c-0.1-1.9-0.4-3.8-1-5.6c-1-3.2-1.5-6.6-1.5-10c0-0.5,0.1-1,0.2-1.5c0-0.2,0.1-0.3,0.1-0.5
	c2.2-0.7,4.9-1.6,4.9-4.1c0-1.6-1-2.5-2.8-2.5c-2.5,0-3.9,2.5-4.4,3.4l-0.1,0.2c-3.7,3.4-7.2,7-10.5,10.8c-1.4,1.6-2.5,2.9-3.4,3.8
	c-0.6,0.6-1.1,1.2-1.6,1.9l-0.5,0.6c-2.4,2.7-4.9,5.3-7.5,7.8c-5.5,5.3-8.2,6.4-9.4,6.4c-1,0-1.2-0.3-1.2-1.4
	c0-2.6,8.1-15.8,17.5-31C541.9,84.6,549,73.1,556,61l0.7-1.2l-8.9,0.3L523,102.3V102c0-4.1-3.2-5.9-6.4-5.9
	c-7.3,0-15.4,4.4-22.9,12.3c-1.1,1.1-2.2,2.3-3.1,3.6c-0.3,0.3-0.6,0.6-0.9,1c-0.9,1.1-1.8,2.2-2.9,3.2c-1.3,1.3-3,2-4.9,2.1
	c-1.7,0.1-3.1-1.3-3.2-2.9c0-0.1,0-0.1,0-0.2c0-4.1,4.1-7,7.8-9.5c3-2.1,5.6-3.9,5.6-6.2c0-2.6-2.8-2.6-3.6-2.6
	c-5.3,0-7.8,5.3-8.6,7.6c-0.5,1.6-2.7,3.5-5.4,6c-0.9,0.8-1.9,1.7-2.9,2.7c2-3.4,3.8-7.3,3.8-10.2c0-3.1-1.9-6.1-5.4-6.1
	c-3.4,0-7,2.3-12.8,8.2l-2.2,2.4c-1.8,1.9-3.5,3.6-4.2,4.6c-0.3,0.3-0.5,0.5-0.8,0.8l-0.9,1c-9.9,11.1-14.4,13.4-16.4,13.4
	c-1.3,0-1.3-0.5-1.3-0.8c0-3.4,13.2-23.2,17-27.7l1.2-1.4l-7.5,0.3c-2.1,0.1-2.8,1.2-4.3,3.8c-0.4,0.6-0.8,1.4-1.4,2.3v-0.5
	c0-3.9-2.3-6.4-5.9-6.4c-8,0-18,5.5-25,13.6c-0.5,0.6-0.9,1-1.1,1.3c-0.3,0.2-0.6,0.5-0.9,0.9c-0.3,0.3-0.7,0.8-1.3,1.5
	c-2.6,2.6-5.8,4.3-9.4,5.1c4.8-4.5,10.3-13.8,10.3-19c-0.1-1.9-1.6-3.4-3.5-3.3c-3.5,0-4.1,1.8-4.5,7.7c-0.7,13.1-14.2,22.6-21,22.6
	c-2,0-2.2-1.1-2.2-1.8c0-1.9,2.8-8.2,16.3-27l1.1-1.6l-10,0.9l-0.2,0.4c-6,11.5-20.6,29.2-27.9,29.2c-0.9-0.1-1.6-0.9-1.5-1.8
	c0,0,0-0.1,0-0.1c0-2.4,10.3-17.1,14.6-23.4c1.2-1.7,2.1-3.1,2.7-3.9l0.9-1.3l-8.6,0.4l-1.4,1.2c-4,3.3-7.7,6.9-11.2,10.8
	c-1.1,1.3-11.7,11.1-20.7,11.6c21.2-46.1,36.5-62.6,41.6-68c1.5-1.6,1.8-2,1.8-2.5c0-0.6-0.4-1.2-1.1-1.2c0,0,0,0-0.1,0
	c-3,0-21.1,6.6-49.5,36.9c-4.7-9.3-14.5-15.7-24.4-15.7c-12.1,0-20.9,8.5-20.9,20.3c0,8.4,8.3,19.1,16.4,24.3
	c-10.9,8.8-20.5,13.2-29.3,13.2c-7.4,0-12.1-4.2-12.1-6.4c0-0.7,0.3-0.9,1.9-1.2c1.9-0.3,4.7-0.8,4.7-5.5c-0.1-2.8-2.4-5.1-5.2-5
	c0,0-0.1,0-0.1,0c-3.8,0-6.9,3.1-6.9,6.9c0,0.1,0,0.2,0,0.3c0,10.2,9.5,13.8,17.6,13.8c9.9,0,20.7-4.8,32.1-14.4
	c6.8,3.9,14.4,6.2,22.2,6.9l-3.2,7.6l1.3-0.2c2.8-0.4,5.4-0.6,8.1-0.7h0.5l3-6.4C337.6,123.5,349,111,349,111
	c1.1-1.3,2.2-2.4,3.2-3.5c-3.8,4.7-7.5,10-7.5,15.4c0,4.6,2.5,7.2,6.8,7.2c5,0,10.9-5.9,14.7-9.7l0.2-0.2c0,0.2,0,0.4,0,0.7
	c0,6.2,2.5,9.3,7.5,9.3c6.6,0,11.6-4.2,14.4-6.5c0.5-0.4,1-0.9,1.6-1.3c3.9-0.2,7.7-1.5,11-3.7c1.2-0.8,2.4-1.8,3.4-2.8
	c-0.1,1-0.2,2-0.2,3c0,9.2,4.5,11.1,8.3,11.1c4.3,0,10-5.1,13.9-8.8v0.1c0,6,1.9,8.7,6,8.7c3.1,0,7.4-2.8,13.8-9.2
	c2.1-2.2,5.7-6,6.5-7l0.5-0.6c1.1-1.3,3.3-3.7,7.5-7.8c5.1-5,7.7-5.7,8.8-5.7c0.6-0.1,1.1,0.2,1.3,0.8c0,1.6-2.5,5.2-6.7,11.2
	c-2.9,4.1-6.8,9.8-11.6,17.1l-0.9,1.4l9.5-0.9l0.2-0.2c4.7-5.9,9.7-11.4,15-16.7c-0.3,1.1-0.5,2.2-0.5,3.3c0,3.3,3.1,5.2,6,5.2
	c3.1-0.1,5.9-1.5,7.9-3.8l1.1-1.3c-0.1,1.2-0.1,2.4-0.1,3.1c0,5.4,2.4,11.1,7.6,11.1c5.6,0,11.5-5.1,14.8-8.9
	c-0.1,0.7-0.2,1.4-0.2,2.1c0,4.1,2.1,6.8,5.2,6.8c4.5,0,9.8-3.8,18.6-13.6c0.8-0.8,1.5-1.7,2.2-2.7l0.3-0.3c0.7-0.8,1.9-2.1,3.2-3.6
	c2.5-2.8,6.8-7.5,9-9.7c-0.2,1.7-0.2,4.6-0.2,9c0,5.9-6.2,17.9-11.3,17.9c-1.2,0-1.3-0.5-1.3-0.9c-0.1-0.4,0.1-0.8,0.5-1
	c0.8-0.5,1.3-1.5,1.2-2.4c0-1.4-1.5-2.6-3.3-2.6c-2.4,0-3.8,1.4-3.8,4c0.1,1.7,0.9,3.4,2.2,4.5c1.8,1.3,3,1.4,5.8,1.4
	c6.5,0,12.3-3.2,19.3-10.8c5.1-5.4,5.1-6,5.1-6.2C565.9,112.2,565.3,111.5,564.6,111.5c-0.1,0-0.1-0.1-0.1,0l0,0L564.6,111.5z
	 M499.5,127.1c-1.9,0-2.5-0.6-2.5-2.3c0-11.1,12.8-25.8,20.3-25.8c1.3,0,2.7,0.4,2.7,3.6C520,112.7,504.7,127.1,499.5,127.1
	L499.5,127.1L499.5,127.1z M430.6,99.7c2.6,0,2.9,2.3,2.9,3.3c0,8.3-15,24.1-21.1,24.1c-1.3,0-2-1-2-2.9
	C410.4,116.2,421.5,99.7,430.6,99.7L430.6,99.7L430.6,99.7z M320.3,88.7c14.8-16.1,30.3-29,42.3-35.2
	c-16.9,16.2-30.7,35.4-40.6,56.6c0.3-2.5,0.5-5,0.5-7.6C322.4,97.8,321.6,93.2,320.3,88.7L320.3,88.7L320.3,88.7z M317.8,91.1
	c1.2,4.1,1.8,8.4,1.7,12.7c0.1,5.7-0.9,11.5-3.2,16.7c-8.8-0.8-14.9-2.6-21.3-6.2C300.8,109.4,309.1,100.8,317.8,91.1L317.8,91.1
	L317.8,91.1z M279.4,92.8c0-9.3,5.1-18.6,16.5-18.6c9.1,0,17.4,5.5,21,13.9c-7.1,7.9-15.5,17-24.4,24.7
	C283.9,107.6,279.4,98.9,279.4,92.8L279.4,92.8L279.4,92.8z"/>
<path class="st0" d="M583.1,97.3c0.1,3.4-2.5,6.1-5.9,6.2s-6.1-2.5-6.2-5.9s2.5-6.1,5.9-6.2c0.1,0,0.2,0,0.2,0
	C580.4,91.3,583.1,93.9,583.1,97.3C583.1,97.2,583.1,97.2,583.1,97.3z M572.5,97.3c-0.1,2.5,1.9,4.6,4.4,4.7c0.1,0,0.1,0,0.2,0
	c2.5,0,4.5-2,4.5-4.5c0,0,0-0.1,0-0.1c0.1-2.5-1.8-4.7-4.3-4.8c-2.5-0.1-4.7,1.8-4.8,4.3C572.5,97,572.5,97.1,572.5,97.3z
	 M576.1,100.4h-1.4v-5.9c0.7-0.1,1.5-0.2,2.3-0.2c0.7-0.1,1.4,0.1,2,0.4c0.4,0.3,0.6,0.8,0.6,1.3c-0.1,0.7-0.6,1.2-1.2,1.4v0.1
	c0.6,0.2,1,0.8,1.1,1.4c0.1,0.5,0.2,1,0.4,1.5h-1.5c-0.2-0.5-0.4-0.9-0.5-1.4c0-0.6-0.5-1-1-1c-0.1,0-0.1,0-0.2,0h-0.7L576.1,100.4
	L576.1,100.4z M576.1,97h0.7c0.8,0,1.4-0.2,1.4-0.9s-0.4-0.9-1.3-0.9c-0.3,0-0.5,0-0.8,0.1V97L576.1,97z"/>
</svg>
