<?xml version="1.0" encoding="utf-8"?>
<!-- Generator: Adobe Illustrator 23.0.1, SVG Export Plug-In . SVG Version: 6.00 Build 0)  -->
<svg version="1.1" id="Layer_1" xmlns="http://www.w3.org/2000/svg" xmlns:xlink="http://www.w3.org/1999/xlink" x="0px" y="0px"
	 viewBox="0 0 171.1 95.3" style="enable-background:new 0 0 171.1 95.3;" xml:space="preserve">
<style type="text/css">
	.st0{fill:#666666;}
</style>
<title>SDGE_logo</title>
<path class="st0" d="M136,32.5l5.2-21.2c1.9-8.1,11.6-11.2,15-11.2h14.8l-6,24h-15.2C144.2,24,139.9,25.5,136,32.5L136,32.5
	L136,32.5z"/>
<polygon class="st0" points="160.2,37.9 134.5,37.9 121.2,91.9 146.7,91.9 148.9,83.3 133,83.3 136.9,67.9 151.4,67.9 153.6,59.3 
	139,59.3 142.2,46.5 157.9,46.5 160.2,37.9 "/>
<path class="st0" d="M118.9,71.7l-5.6,23.6H0l3.4-13.9H103C109.6,81.4,116.1,76.9,118.9,71.7L118.9,71.7L118.9,71.7z"/>
<path class="st0" d="M59.7,22.9L46.5,75h20.3c5.8,0,11.8-0.8,13.9-9L88,37.1c1.3-5.4,0.8-14.3-8.6-14.3L59.7,22.9L59.7,22.9z
	 M67.7,30.8h6.9c4.9,0,5.8,2.8,4.7,6.4l-6,23.8c-0.9,3.2-2.2,6.2-8.1,6.2h-6.6L67.7,30.8L67.7,30.8L67.7,30.8z"/>
<path class="st0" d="M121.2,28.9h8.4l1.9-7.5c1.1-4.7-1.5-8.8-12.9-8.8s-17.6,0-23.4,24.2C91.7,50.3,85,66.6,105.2,67
	c5.3,0.1,10.6-0.9,15.6-2.8l6.8-26.3h-15l-2.2,8.6h6.4L114.1,57c-2.2,2.2-14.8,4.5-12.4-5.8l4.5-18.2c1.7-6.8,4.7-13.1,10.9-13.3
	S122.3,24.7,121.2,28.9L121.2,28.9L121.2,28.9z"/>
<path class="st0" d="M19.1,58.9H9c-2.2,8.4-4.9,18,10.9,18.4S40.3,67,41.5,64.2s3.4-10.5-3-15.2c-6-4.4-11.8-7.3-10.5-12.6
	s5.2-7.1,8.4-6.8s4.1,1.7,2.4,8.6H49c1.7-6.6,6.8-15.6-11.1-16.7c-10.5-0.9-16.7,4.3-18.8,9.6s-4.9,12.4,2.6,18.2
	c7.1,5.5,11,7.6,8.8,12.9s-5.2,6-8.6,5.8S16.7,66.8,19.1,58.9L19.1,58.9L19.1,58.9z"/>
</svg>
