<?xml version="1.0" encoding="utf-8"?>
<!-- Generator: Adobe Illustrator 23.0.1, SVG Export Plug-In . SVG Version: 6.00 Build 0)  -->
<svg version="1.1" id="Layer_1" xmlns="http://www.w3.org/2000/svg" xmlns:xlink="http://www.w3.org/1999/xlink" x="0px" y="0px"
	 viewBox="0 0 426.6 73" style="enable-background:new 0 0 426.6 73;" xml:space="preserve">
<style type="text/css">
	.st0{fill:#666666;}
</style>
<title>stride_rite_logo_4c</title>
<path class="st0" d="M12.4,57.7c1.3,4.1,5.4,6.2,10.7,6.2c5.6,0,9.3-2,9.3-5.9c0-2.7-1.8-4.1-6.3-5.1l-11.2-2.4
	C7.2,48.9,1.5,45.1,1.5,37.1c0-8.8,8.6-15.4,20.4-15.4c12.7,0,19.8,5.5,21.7,14.5H31.6c-1.1-3.2-4.3-5.4-9.9-5.4
	c-4.2,0-8.6,1.8-8.6,5.6c0,2.2,1.7,3.7,5.6,4.5l11.4,2.4c9.2,2,13.8,6.7,13.8,13.9C44,67,35.2,73,23,73C10.4,73,1.6,67.2,0,57.7
	H12.4z"/>
<path class="st0" d="M53.9,32h-8.5v-9.2h8.5V9.6h12.2v13.2h12.2V32H66.1v25.4c0,4,2.4,5.7,6.4,5.7c2.4,0,4.8-0.7,6.9-2v10.1
	c-2.9,1.3-6,1.9-9.1,1.8c-9.6,0-16.4-4.6-16.4-14.4V32z"/>
<path class="st0" d="M117.2,34c-2.2-1.2-4.7-1.8-7.2-1.7c-5,0-9.6,2.5-10.8,7.9v31.7H87V22.8h12.2v5.1c2.1-3.7,6.8-6.2,12.1-6.2
	c2-0.1,4.1,0.2,6,0.9L117.2,34L117.2,34z"/>
<path class="st0" d="M129.6,14.7c-4,0-7.5-3-7.5-6.8s3.5-6.8,7.5-6.8s7.6,3,7.6,6.8S133.6,14.7,129.6,14.7z M135.7,71.9h-12.2V22.8
	h12.2V71.9z"/>
<path class="st0" d="M180.9,67.7c-2.4,2.8-7.8,5.3-13.8,5.3c-15.8,0-25.1-11.5-25.1-25.7s9.2-25.7,25.1-25.7c6,0,11.3,2.5,13.8,5.3
	V0h12.2v71.9h-12.2V67.7z M180.9,38c-2.1-3.9-6.7-6.5-11.7-6.5c-9.4,0-15,6.8-15,15.8s5.6,15.8,15,15.8c5,0,9.6-2.7,11.7-6.5
	L180.9,38L180.9,38z"/>
<path class="st0" d="M247.8,56.6C246,66.4,238.1,73,225.1,73c-15.1,0-25.6-10.4-25.6-25.5c0-14.7,10.6-25.8,25.3-25.8
	c15.2,0,23.5,9.8,23.5,24.2v4h-36.9c0.4,8.6,5.9,13.8,13.6,13.8c5.9,0,10.2-2.3,11.6-7.1L247.8,56.6L247.8,56.6z M211.8,41.8h24.5
	c-0.1-6-3.9-10.8-11.3-10.8C218.3,31,213.3,34.7,211.8,41.8L211.8,41.8z"/>
<path class="st0" d="M306.9,34c-2.2-1.2-4.7-1.7-7.2-1.7c-5,0-9.6,2.5-10.8,7.9v31.7h-12.1V22.8h12.2v5.1c2.1-3.7,6.8-6.2,12-6.2
	c2-0.1,4.1,0.2,6,0.9V34z"/>
<path class="st0" d="M319.3,14.7c-4,0-7.5-3-7.5-6.8s3.5-6.8,7.5-6.8s7.5,3,7.5,6.8S323.3,14.7,319.3,14.7z M325.3,71.9h-12.2V22.8
	h12.2L325.3,71.9L325.3,71.9z"/>
<path class="st0" d="M338.4,32h-8.5v-9.2h8.5V9.6h12.2v13.2h12.1V32h-12.1v25.4c0,4,2.4,5.7,6.4,5.7c2.5,0,4.9-0.7,7-2v10.1
	c-2.9,1.3-6,1.9-9.1,1.8c-9.6,0-16.4-4.6-16.4-14.4L338.4,32L338.4,32z"/>
<path class="st0" d="M416,56.6c-1.8,9.7-9.7,16.4-22.8,16.4c-15.1,0-25.6-10.4-25.6-25.5c0-14.7,10.6-25.8,25.3-25.8
	c15.2,0,23.5,9.8,23.5,24.2v4h-36.9c0.4,8.6,5.9,13.8,13.6,13.8c5.8,0,10.2-2.3,11.5-7.1L416,56.6L416,56.6z M380,41.8h24.5
	c-0.1-6-3.9-10.8-11.3-10.8C386.4,31,381.4,34.7,380,41.8z"/>
<path class="st0" d="M420.4,26.9L420.4,26.9h0.8c0.4-0.1,0.9,0,1.2,0.3c0.1,0.2,0.2,0.4,0.2,0.6c0,0.9-0.9,0.9-1.5,0.9h-0.8
	L420.4,26.9z M419.4,26v6h1.1v-2.5h0.8l1.5,2.5h1.1c0-0.1-1.6-2.6-1.6-2.6l0,0c0.8,0,1.5-0.8,1.4-1.6c0,0,0,0,0,0
	c0-1.2-0.7-1.8-2.1-1.8L419.4,26L419.4,26z M417,29c0-2.4,2-4.4,4.4-4.3s4.4,2,4.3,4.4c0,2.4-2,4.3-4.4,4.3
	C419,33.5,417,31.5,417,29 M416.1,29.1c0,2.9,2.4,5.2,5.3,5.2c2.9,0,5.2-2.4,5.2-5.3c0-2.9-2.4-5.2-5.2-5.2
	C418.5,23.8,416.1,26.2,416.1,29.1"/>
</svg>
