<?xml version="1.0" encoding="utf-8"?>
<!-- Generator: Adobe Illustrator 23.0.1, SVG Export Plug-In . SVG Version: 6.00 Build 0)  -->
<svg version="1.1" id="Foreground" xmlns="http://www.w3.org/2000/svg" xmlns:xlink="http://www.w3.org/1999/xlink" x="0px" y="0px"
	 viewBox="0 0 392.7 83.6" style="enable-background:new 0 0 392.7 83.6;" xml:space="preserve">
<style type="text/css">
	.st0{fill-rule:evenodd;clip-rule:evenodd;fill:#666666;}
	.st1{fill:#666666;}
</style>
<title>Viper logo line art white vector</title>
<polygon class="st0" points="13.8,83.6 41.3,83.6 85.1,0 57.5,0 32.5,55.6 27.6,0 0,0 "/>
<polygon class="st0" points="109.1,83.6 123.8,0 96.4,0 81.7,83.6 "/>
<path class="st0" d="M160,38.1l3.3-18.6h7.7c2.1,0,4.2,0.2,6.3,0.6c2,0.3,3.8,1.2,5.3,2.5c1.4,1.3,1.9,3.2,1.5,5.8
	c-0.7,3.6-2.2,6.1-4.5,7.6c-2.5,1.6-5.4,2.3-8.3,2.2L160,38.1L160,38.1z M152,83.6l4.6-26h13.8c12-0.1,21.3-2.7,27.8-7.9
	s10.6-12.3,12.1-21.4c1.6-8.7-0.2-15.5-5.2-20.6S191.6,0.1,179.6,0h-40.3l-14.8,83.6L152,83.6L152,83.6z"/>
<polygon class="st0" points="280.3,83.6 283.8,64.1 241.4,64.1 243.7,51 278.2,51 281.6,31.5 247.1,31.5 249.2,19.5 290,19.5 
	293.4,0 225.3,0 210.5,83.6 "/>
<path class="st0" d="M331.3,19.5h12.8c3.3,0,5.8,0.7,7.5,2.1c1.8,1.4,2.4,3.6,2,6.6c-0.4,2.7-2,5-4.4,6.1c-2.4,1.2-5.8,1.8-10,1.8
	h-10.9L331.3,19.5z M333.5,54.5c6.2-0.1,10.1,1,11.6,3.2s1.7,6,0.5,11.3c-0.6,3.1-1,6.3-1.2,9.4c-0.2,1.7-0.2,3.5,0,5.2h27.7
	l0.5-2.5c-1.6,0.1-2.3-1-2.1-3.2c0.4-3.8,1-7.6,1.8-11.4c1-5.5,1.1-9.7,0.5-12.5c-0.4-2.5-1.7-4.7-3.7-6.2c-2.2-1.5-4.5-2.6-7-3.5
	c4.7-1.2,8.9-3.8,12-7.6c2.9-3.7,4.9-8.1,5.6-12.8c1-5.4,0.7-9.9-1-13.4s-5.1-6.1-10.3-7.8C363.2,0.9,356,0,346.8,0h-39.5
	l-14.8,83.6H320l5.1-29.2L333.5,54.5L333.5,54.5z"/>
<path class="st1" d="M388.3,2.7c2.5,0,4.5,2,4.5,4.5c0,0,0,0,0,0c0.2,2.5-1.7,4.6-4.2,4.8c-2.5,0.2-4.6-1.7-4.8-4.2
	c0-0.2,0-0.4,0-0.6C383.7,4.7,385.7,2.7,388.3,2.7C388.2,2.7,388.3,2.7,388.3,2.7L388.3,2.7z M388.3,3.4c-2.1,0.1-3.7,1.8-3.6,3.8
	c-0.1,2,1.4,3.7,3.5,3.8c2,0.1,3.7-1.4,3.8-3.5c0-0.1,0-0.3,0-0.4C392,5.2,390.4,3.4,388.3,3.4C388.3,3.4,388.3,3.4,388.3,3.4
	L388.3,3.4L388.3,3.4z M387.4,9.9h-0.8V4.8c0.5-0.1,0.9-0.1,1.4-0.1c0.6,0,1.1,0.1,1.6,0.4c0.3,0.2,0.5,0.6,0.5,1.1
	c0,0.6-0.4,1.1-1,1.2l0,0c0.5,0.2,0.9,0.7,0.9,1.2c0,0.4,0.2,0.9,0.3,1.2h-0.9c-0.2-0.4-0.3-0.8-0.3-1.3c-0.1-0.5-0.5-0.9-1-0.8
	h-0.6L387.4,9.9L387.4,9.9z M387.4,7.1h0.6c0.5,0.1,1.1-0.2,1.2-0.7c0,0,0-0.1,0-0.1c0-0.6-0.5-1-1.1-0.9c-0.1,0-0.1,0-0.2,0
	c-0.2,0-0.4,0-0.6,0V7.1L387.4,7.1z"/>
</svg>
