<?xml version="1.0" encoding="utf-8"?>
<!-- Generator: Adobe Illustrator 23.0.1, SVG Export Plug-In . SVG Version: 6.00 Build 0)  -->
<svg version="1.1" id="Layer_1" xmlns="http://www.w3.org/2000/svg" xmlns:xlink="http://www.w3.org/1999/xlink" x="0px" y="0px"
	 viewBox="0 0 78.1 38.2" style="enable-background:new 0 0 78.1 38.2;" xml:space="preserve">
<style type="text/css">
	.st0{fill:#666666;}
</style>
<g>
	<path class="st0" d="M46.7,30.4c-3.6,0.9-6,1.8-7.6,2.7c-4.9-2.2-10.3-3.4-15.4-3.4c-6.3,0-12,1.6-16.9,3.9L0,0h46.7 M13.9,8.4H9.8
		v12.3h8.3v-2.9h-4.2C13.9,17.8,13.9,8.4,13.9,8.4z M25.3,18.8c-1.9,0-2.3-0.8-2.3-3.1h8.5c0-5.5-1.3-7.7-6.2-7.7
		c-5.3,0-6.7,1.8-6.7,6.6c0,4.6,1.9,6.9,6.4,6.9c4.4,0,6-1.6,6.2-4.2h-3.9C27.3,18.4,26.9,18.8,25.3,18.8z M23,13.3
		c0-1.8,0.4-2.9,2.2-2.9c1.7,0,2.2,0.8,2.2,2.9C27.4,13.3,23,13.3,23,13.3z M36.1,8.4h-4.5l4.7,12.3h5.1l4.8-12.3h-4.4l-2.9,8
		L36.1,8.4z"/>
	<path class="st0" d="M46.7,0h31.5l-7.4,33.6c-4.9-2.8-9.3-4-15.7-4c-3.5,0-5.9,0.3-8.4,0.8 M47.4,8.4v12.4h4V8.4H47.4z M54.5,9.2
		l-0.2,1.2c1.3-0.8,1.8-1.5,1.8-2.4c0-1-0.7-1.6-1.7-1.6S52.7,7,52.7,7.9C52.8,9,53.5,9.2,54.5,9.2z M60.3,16.8h-4.4
		c0.1,3,1.6,4.2,6.4,4.2c4.4,0,6.2-1,6.2-4.1c0-4.9-8.2-2.4-8.2-5.3c0-0.7,0.8-1.3,1.9-1.3c1.1,0,1.6,0.5,1.8,1.5h4.2
		C68.1,9.2,66.6,8,62.5,8c-4.3,0-6.3,1.2-6.3,3.9c0,5.3,8.2,2.5,8.2,5.5c0,0.9-0.5,1.4-1.7,1.4C61.3,18.8,60.4,18.3,60.3,16.8z
		 M63.7,33.5c1.3,0,2.4,1.1,2.4,2.4c0,1.3-1.1,2.4-2.4,2.4c-1.3,0-2.4-1-2.4-2.4C61.3,34.6,62.4,33.5,63.7,33.5z M65.7,35.9
		c0-1.1-0.9-1.9-2-1.9s-2,0.9-2,1.9c0,1.1,0.9,2,2,2C64.8,37.9,65.7,36.9,65.7,35.9z M62.9,37v-2.4h0.6c0.6,0,1.1,0.2,1.1,0.8
		c0,0.3-0.2,0.5-0.5,0.7l0.4,0.9h-0.4l-0.4-0.7h-0.4V37H62.9z M64.1,35.4c0-0.2-0.2-0.3-0.8-0.3v0.6C63.7,35.7,64.1,35.7,64.1,35.4z
		"/>
</g>
</svg>
