<?xml version="1.0" encoding="utf-8"?>
<!-- Generator: Adobe Illustrator 22.0.1, SVG Export Plug-In . SVG Version: 6.00 Build 0)  -->
<svg version="1.1" id="Layer_1" xmlns="http://www.w3.org/2000/svg" xmlns:xlink="http://www.w3.org/1999/xlink" x="0px" y="0px"
	 viewBox="0 0 207 30.5" style="enable-background:new 0 0 207 30.5;" xml:space="preserve">
<style type="text/css">
	.st0{fill:#FFFFFF;}
</style>
<path class="st0" d="M22.7,27.2c-0.8,2.1-1.6,3.3-4.3,3.3s-3.5-1.3-4.3-3.3L6,6.5c-0.4-1-0.5-1.6-0.5-2.3c0-2.6,2-3.9,4.2-3.9
	s3.2,1.6,3.5,2.8l5.1,15.8h0.1l5.1-15.8c0.4-1.2,1.3-2.8,3.5-2.8c0,0,7.7,0,7.8,0c2,0,3.4,1.1,3.6,3.1c2-2.1,4.5-3.3,7.5-3.3
	c3.3,0,6.2,1.4,8.3,4.1C56.5,1.5,60.1,0,62.8,0c6.5,0,10.9,3.8,10.9,10.8v15.3c0,2.7-1.7,4.4-4,4.4s-4-1.8-4-4.4V12.2
	c0-3.2-1.8-5.5-4.7-5.5c-3,0-4.7,2.3-4.7,5.5v13.9c0,2.7-1.7,4.4-4,4.4s-4-1.8-4-4.4V12.2c0-3.2-1.8-5.5-4.7-5.5
	c-3.3,0-4.7,2.3-4.7,5.5v13.9c0,2.7-1.7,4.4-4,4.4s-4-1.8-4-4.4V6.2L22.7,27.2L22.7,27.2z"/>
<path class="st0" d="M76.5,4.3c-0.2-0.7-0.4-1.4-0.4-1.9c0-1,0.7-2.2,2.3-2.2c1.1,0,2,0.4,2.7,2.5L87.4,23h0.1l6.2-19.5
	c0.7-2.1,1.1-3.2,2.9-3.2s2.2,1.1,2.9,3.2l6.2,19.5h0.1L112,2.8c0.7-2.1,1.7-2.5,2.7-2.5c1.7,0,2.3,1.2,2.3,2.2
	c0,0.5-0.2,1.2-0.4,1.9L108.5,28c-0.7,1.9-1.4,2.6-2.8,2.6c-1.3,0-2.2-0.7-2.8-2.6L96.6,8h-0.1l-6.3,20c-0.6,1.9-1.4,2.6-2.8,2.6
	s-2.2-0.7-2.8-2.6L76.5,4.3L76.5,4.3z"/>
<path class="st0" d="M123.9,15.4c0-5,2.1-10.9,8.1-10.9s8.1,5.9,8.1,10.9S138,26.3,132,26.3C126.1,26.3,123.9,20.4,123.9,15.4
	L123.9,15.4z M144.8,2.6c0-1.7-1.3-2.4-2.3-2.4s-2.3,0.7-2.3,2.4v1.6h-0.1c-2.3-2.5-4.7-3.9-8.1-3.9c-8.3,0-13,7.3-13,15.1
	c0,7.9,4.7,15.1,13,15.1c3.2,0,5.9-1.4,8.1-4.4h0.1v2c0,1.7,1.3,2.4,2.3,2.4c0.9,0,2.3-0.7,2.3-2.4V2.6L144.8,2.6z"/>
<path class="st0" d="M151.2,2.9c0-1.6,0.9-2.6,2.4-2.6s2.5,1,2.5,2.6v2.5h0.1c1.1-2.3,3.8-5.1,6.7-5.1c1.7,0,2.7,1.1,2.7,2.5
	s-1,2.3-3.1,2.7c-2.9,0.5-6.4,2.7-6.4,8.4V28c0,1.6-1,2.6-2.5,2.6s-2.4-1-2.4-2.6V2.9L151.2,2.9z"/>
<path class="st0" d="M171.8,13.6c0.2-4.5,2.3-9.4,8.4-9.2c5.4,0,7.8,4.9,7.8,9.2H171.8L171.8,13.6z M190.2,17.3
	c2.1,0,2.7-0.9,2.7-2.6c0-7.2-4.7-14.4-12.7-14.4c-8.3,0-13.3,7.1-13.3,15.1c0,7.9,4.1,15.1,13.6,15.1c5.8,0,11.8-3.6,11.8-6
	c0-1.4-0.9-2.2-1.8-2.2c-1.8,0-3.5,4-10,4c-5.5,0-8.7-4-8.7-9H190.2L190.2,17.3z"/>
<path class="st0" d="M196.7,0.8v0.6h-1.5v4.4h-0.8V1.4h-1.5V0.8H196.7L196.7,0.8z M201.6,5.8l-0.2-3c0-0.4,0-0.9,0-1.4l0,0
	c-0.1,0.5-0.3,1-0.4,1.5l-1,2.9h-0.6l-1-3c-0.1-0.4-0.3-0.9-0.4-1.4l0,0c0,0.5,0,0.9,0,1.4l-0.2,3h-0.7l0.4-5.1h1l1,2.7
	c0.1,0.4,0.2,0.8,0.4,1.3l0,0c0.1-0.5,0.2-0.9,0.4-1.3l1-2.7h1l0.4,5.1H201.6L201.6,5.8z"/>
</svg>
