<?xml version="1.0" encoding="utf-8"?>
<!-- Generator: Adobe Illustrator 23.0.1, SVG Export Plug-In . SVG Version: 6.00 Build 0)  -->
<svg version="1.1" id="Foreground" xmlns="http://www.w3.org/2000/svg" xmlns:xlink="http://www.w3.org/1999/xlink" x="0px" y="0px"
	 viewBox="0 0 248.9 82" style="enable-background:new 0 0 248.9 82;" xml:space="preserve">
<style type="text/css">
	.st0{fill:#666666;}
</style>
<title>Viper logo line art white vector</title>
<path id="path3" class="st0" d="M152.5,82h19.8V0h-19.8V82z M117.6,58.7c0,2.9-2.4,5.3-5.3,5.3h-11.5c-2.9,0-5.3-2.4-5.3-5.3
	c0-1.1,0-33.1,0-33.1H75.8v34.7c0,14.2,9.1,21.7,22.5,21.7h19.4v-0.1c12.4,0,19.8-8.8,19.8-21.6V25.6h-19.8
	C117.6,25.6,117.6,57.6,117.6,58.7L117.6,58.7z M229.2,25.6c0,0,0,32,0,33.1c0,2.9-2.4,5.3-5.3,5.3h-11.5c-2.9,0-5.3-2.4-5.3-5.3
	c0-1.1,0-33.1,0-33.1h-19.8v34.7c0,14.2,9.1,21.7,22.5,21.7h19.4v-0.1c12.4,0,19.8-8.8,19.8-21.6V25.6L229.2,25.6L229.2,25.6z
	 M39.1,25.6c0,0-10.3,0-12.7,0c-4.5,0-6.7,1.2-6.7,1.2V0H0l0,82h19.8V48.9c0-2.9,2.4-5.3,5.3-5.3h11.5c2.9,0,5.3,2.4,5.3,5.3V82
	h19.8V46.3C61.6,31.4,51.6,25.6,39.1,25.6L39.1,25.6z"/>
</svg>
